<svg width="654" height="626" viewBox="0 0 654 626" fill="none" xmlns="http://www.w3.org/2000/svg">
<g clip-path="url(#clip0_60_1860)">
<path d="M95.6703 569.989C-31.8901 496.341 -31.8901 376.936 95.6703 303.289C223.232 229.643 430.049 229.644 557.608 303.292C685.169 376.94 685.169 496.345 557.608 569.992C430.049 643.637 223.232 643.636 95.6703 569.989Z" fill="#211E3F"/>
<path d="M498.394 498.139L597.687 440.812C603.927 437.211 603.927 431.369 597.687 427.767L535.492 391.857C529.251 388.255 519.031 388.067 512.662 391.437L408.535 446.545C402.167 449.916 402.062 455.568 408.302 459.171L475.796 498.139C482.038 501.741 492.155 501.741 498.394 498.139Z" fill="#332F55"/>
<path d="M161.671 498.139L62.3779 440.812C56.1383 437.211 56.1383 431.369 62.3779 427.767L124.573 391.857C130.813 388.255 141.034 388.067 147.403 391.437L251.53 446.545C257.899 449.916 258.003 455.568 251.763 459.171L184.268 498.139C178.027 501.741 167.911 501.741 161.671 498.139Z" fill="#332F55"/>
<path d="M229.284 578.133C173.432 545.888 173.432 493.607 229.284 461.361C285.134 429.115 375.688 429.116 431.541 461.361C487.392 493.607 487.392 545.888 431.541 578.135C375.689 610.381 285.136 610.38 229.284 578.133Z" fill="#332F55"/>
<path d="M507.843 564.367L468.365 541.619C466.44 540.507 466.44 538.705 468.365 537.593L579.116 473.652C581.041 472.54 584.163 472.54 586.088 473.652L625.564 496.4C627.489 497.512 627.489 499.313 625.564 500.425L514.815 564.367C512.889 565.477 509.768 565.477 507.843 564.367Z" fill="#332F55"/>
<path d="M153.985 564.367L193.464 541.619C195.389 540.507 195.389 538.705 193.464 537.593L82.7129 473.652C80.7873 472.54 77.6665 472.54 75.7416 473.652L36.2644 496.4C34.3389 497.512 34.3389 499.313 36.2644 500.425L147.015 564.367C148.94 565.477 152.06 565.477 153.985 564.367Z" fill="#332F55"/>
<path d="M78.0995 420.937C78.0995 420.937 80.3807 396.909 74.2516 377.681C68.1208 358.452 56.4063 344.339 43.2036 339.664C30.0016 334.989 15.7869 344.485 27.9396 356.867C40.0917 369.249 62.9828 393.087 66.2557 428.116L78.0995 420.937Z" fill="#4A41AA"/>
<path d="M78.5112 408.948L77.4044 408.309L78.3618 403.248C78.4534 405.261 78.4982 407.173 78.5112 408.948ZM71.5274 404.916L70.679 404.427C66.03 370.288 46.3951 350.032 35.8258 344.425C35.7154 344.365 35.5962 344.337 35.479 344.337C35.2118 344.337 34.9519 344.483 34.8175 344.735C34.6248 345.099 34.7618 345.551 35.1263 345.743C45.331 351.156 63.7826 370.819 68.9123 403.407L68.4279 403.127C67.7148 402.709 66.7754 402.5 65.8358 402.5C65.7082 402.5 65.5806 402.504 65.4539 402.512C63.606 400.736 61.4019 399.339 59.1976 398.071C58.744 397.809 58.2659 397.568 57.7962 397.313C56.6164 394.777 55.3571 392.337 54.0383 389.991C53.932 388.816 53.8399 387.655 53.4582 386.515C52.9148 384.896 52.068 383.425 51.1024 382.028C50.0123 380.449 48.6883 379.347 46.8675 378.639C46.8258 378.623 46.7847 378.607 46.743 378.591C40.0826 369.331 33.0582 362.083 27.9399 356.867C24.6894 353.556 23.3254 350.449 23.3232 347.767C23.3196 342.199 29.1826 338.451 36.231 338.451C38.4852 338.451 40.8607 338.835 43.2039 339.664C56.4066 344.339 68.1211 358.452 74.2519 377.681C74.5415 378.591 74.8123 379.509 75.0659 380.437L71.5274 404.916Z" fill="#EBB8E0"/>
<path d="M70.7802 415.447L70.9338 415.443C71.3426 415.393 71.5983 415.024 71.5811 414.611C69.8713 374.303 47.4067 350.568 35.8259 344.425C35.4645 344.229 35.0114 344.372 34.8177 344.735C34.625 345.099 34.7619 345.551 35.1265 345.743C46.4698 351.76 68.0035 375.381 70.1021 414.797C70.1207 415.156 70.4359 415.42 70.7802 415.447Z" fill="white"/>
<path d="M5.18923 380.401C5.53349 382.747 7.50849 384.469 9.39131 385.915C11.2647 387.351 13.3184 388.919 13.9142 391.212C15.1111 395.843 9.75797 400.392 11.1533 404.965C11.7397 406.883 13.4346 408.28 15.2414 409.151C16.7387 409.887 18.348 410.333 19.9122 410.915C20.6876 411.113 21.4663 411.271 22.2398 411.373C24.5262 411.665 26.9403 412.228 28.6408 413.915C31.3127 416.579 31.171 420.852 32.2346 424.473C33.5122 428.812 35.4914 432.68 39.4444 434.811C45.1751 437.9 51.357 436.717 51.357 436.717L66.2554 428.116C71.2262 426.612 71.4428 421.912 71.5808 416.783C71.7095 411.991 69.5054 406.932 66.3314 403.417C64.3283 401.197 61.7627 399.547 59.197 398.071C57.8278 397.283 56.2371 396.672 55.2991 395.348C54.4518 394.151 54.372 392.736 54.1799 391.321C53.959 389.695 53.9835 388.084 53.4575 386.515C52.9142 384.896 52.0674 383.425 51.1018 382.028C50.0116 380.449 48.6876 379.347 46.8668 378.639C44.236 377.617 41.6314 376.933 38.8283 376.635C37.4606 376.489 36.047 376.548 34.6299 376.607C32.4242 376.699 30.2084 376.791 28.1382 376.109C24.8308 375.021 21.7986 373.211 18.3116 372.495C14.6647 371.747 10.5918 372.245 7.69548 374.747C6.06787 376.152 4.87828 378.273 5.18923 380.401Z" fill="#4A41AA"/>
<path d="M46.3293 436.839C44.2714 436.637 41.8189 436.091 39.4444 434.811C35.4913 432.68 33.5121 428.812 32.2345 424.473C31.1709 420.852 31.3126 416.579 28.6408 413.915C26.9402 412.228 24.5261 411.665 22.2397 411.373C21.4662 411.271 20.6876 411.113 19.9121 410.915C18.348 410.333 16.7386 409.887 15.2413 409.151C13.4345 408.28 11.7397 406.883 11.1532 404.965C10.9897 404.429 10.9188 403.893 10.9193 403.359C10.9225 399.788 14.0928 396.225 14.0902 392.62C14.0897 392.152 14.0356 391.683 13.9141 391.212C13.3183 388.919 11.2647 387.351 9.39122 385.915C7.50841 384.469 5.53341 382.747 5.18914 380.401C5.15529 380.168 5.13914 379.936 5.13966 379.704C5.14382 377.817 6.24591 375.999 7.69539 374.747C9.79018 372.937 12.5001 372.176 15.2193 372.176C16.26 372.176 17.3022 372.288 18.3116 372.495C21.7985 373.211 24.8308 375.021 28.1381 376.109C29.4944 376.556 30.9126 376.671 32.3501 376.671C33.1069 376.671 33.8689 376.639 34.6298 376.607C35.3902 376.575 36.1501 376.544 36.9017 376.544C37.5512 376.544 38.1944 376.567 38.8282 376.635C41.6313 376.933 44.236 377.617 46.8668 378.639C48.6876 379.347 50.0116 380.449 51.1017 382.028C52.0673 383.425 52.9141 384.896 53.4574 386.515C53.9834 388.084 53.9589 389.695 54.1798 391.321C54.372 392.736 54.4517 394.151 55.299 395.348C56.237 396.672 57.8277 397.283 59.1969 398.071C61.4012 399.339 63.6053 400.736 65.4532 402.512C64.6444 402.561 63.8589 402.765 63.2422 403.127L58.6058 405.8L57.1256 406.653L48.9392 411.375C47.4944 412.211 46.3282 414.228 46.3282 415.881L46.3293 436.839Z" fill="#C578C2"/>
<path d="M48.0507 402.023C47.9835 401.889 47.8777 401.772 47.7731 401.617C37.9652 387.069 21.7761 380.447 16.4636 379.371C16.1793 379.316 15.8949 379.499 15.8351 379.788C15.7761 380.076 15.9632 380.357 16.2517 380.416C21.2887 381.437 36.3299 387.545 45.986 400.884C32.9527 395.971 22.7397 401.652 22.6329 401.712C22.3767 401.859 22.2887 402.184 22.434 402.44C22.5241 402.597 22.6819 402.691 22.8507 402.707L23.1616 402.639C23.2673 402.579 33.8455 396.724 47.084 402.484C51.5627 409.244 54.6329 417.724 54.5132 428.188C54.51 428.468 54.7236 428.7 54.9975 428.725L55.0413 428.727C55.3351 428.731 55.5772 428.495 55.5799 428.199C55.7012 417.555 52.5939 408.916 48.0507 402.023Z" fill="white"/>
<path d="M579.87 425.395C579.87 425.395 576.712 390.993 595.032 357.609C605.272 338.951 620.863 331.232 629.907 331.14C640.046 331.039 649.268 340.141 638.943 352.141C629.13 363.543 612.242 367.08 599.127 397.884C593.535 411.02 591.322 421.459 590.455 427.193C590.136 429.308 587.315 430.333 585.364 429.039L579.87 425.395Z" fill="#4A41AA"/>
<path d="M585.353 429.032L579.869 425.395C579.869 425.395 579.661 423.133 579.661 419.209C579.661 415.449 579.852 410.165 580.597 403.876L584.899 426.627C584.892 426.997 584.889 427.368 584.889 427.744C584.889 428.052 584.892 428.361 584.896 428.673L585.342 428.973L585.353 429.032ZM588.004 408.651C591.538 374.117 614.036 347.653 630.394 339.193C630.693 339.039 630.792 338.704 630.613 338.443C630.494 338.271 630.286 338.175 630.072 338.175C629.962 338.175 629.85 338.2 629.749 338.252C613.794 346.504 592.085 371.593 587.249 404.552L584.34 384.417C586.64 375.884 590.037 366.709 595.032 357.609C605.272 338.951 620.862 331.232 629.906 331.14C629.962 331.14 630.02 331.14 630.076 331.14C637.009 331.14 643.465 335.439 643.464 342.011C643.464 344.984 642.141 348.424 638.942 352.141C631.072 361.285 618.653 365.368 607.277 382.519C600.201 387.805 592.268 396.367 588.004 408.651Z" fill="#DE9FD4"/>
<path d="M586.898 418.503C587.247 418.503 587.528 418.259 587.528 417.956C587.528 378.92 612.596 348.399 630.395 339.193C630.694 339.039 630.792 338.704 630.614 338.443C630.435 338.181 630.05 338.099 629.75 338.252C611.695 347.591 586.27 378.492 586.27 417.956C586.27 418.259 586.551 418.503 586.898 418.503Z" fill="white"/>
<path d="M586.276 429.603C587.98 430.752 590.464 430.129 591.209 428.372C594.393 420.861 600.94 413.425 612.319 405.996C625.556 397.353 643.251 389.937 641.799 381.117C640.347 372.297 626.941 372.912 617.121 376.809C607.303 380.709 584.431 396.799 584.896 428.673L586.276 429.603Z" fill="#4A41AA"/>
<path d="M590.791 429.053L587.889 408.981C594.346 389.987 609.583 379.804 617.121 376.809C621.292 375.155 626.108 374.091 630.381 374.091C636.17 374.091 640.964 376.043 641.799 381.117C641.856 381.463 641.883 381.804 641.883 382.145C641.875 390.519 625.039 397.691 612.319 405.996C600.94 413.425 594.393 420.861 591.209 428.372C591.102 428.623 590.961 428.851 590.791 429.053ZM585.342 428.973L584.896 428.673C584.892 428.361 584.889 428.052 584.889 427.744C584.889 427.368 584.892 426.997 584.899 426.627L585.342 428.973Z" fill="#C578C2"/>
<path d="M587.046 430.307C587.343 430.308 587.639 430.127 587.664 429.859C589.8 406.189 615.827 382.159 632.658 378.892C632.998 378.827 633.2 378.523 633.115 378.229C633.035 377.936 632.703 377.788 632.352 377.831C615.812 379.867 587.323 405.78 586.424 429.663C586.414 429.965 586.588 430.245 586.931 430.299L587.046 430.307Z" fill="white"/>
<path d="M411.058 452.159L422.48 328.565L433.082 328.028L416.395 452.144H416.383C416.332 452.48 416.107 452.816 415.676 453.093C414.663 453.748 412.972 453.835 411.898 453.284C411.328 452.993 411.055 452.58 411.068 452.159H411.058Z" fill="#211E3F"/>
<path d="M422.48 328.565L433.081 328.028L429.961 348.556C427.418 347.6 426.425 347.139 423.685 345.668C422.228 344.885 420.998 343.801 420.884 343.272L422.48 328.565Z" fill="#211E3F"/>
<path d="M563.357 312.689H573.972L590.964 430.251H590.952C590.988 430.671 590.736 431.097 590.18 431.417C589.137 432.02 587.443 432.02 586.397 431.417C585.955 431.161 585.712 430.839 585.644 430.505H585.632L563.357 312.689Z" fill="#514F8C"/>
<path d="M573.972 312.689L578.099 341.237C576.173 342.904 572.119 345.259 569.723 346.363L563.357 312.689H573.972Z" fill="#211E3F"/>
<path d="M481.981 488.451L490.409 363.035L501.011 362.497L487.319 488.436H487.307C487.256 488.771 487.029 489.107 486.601 489.384C485.588 490.04 483.896 490.125 482.823 489.576C482.252 489.284 481.98 488.871 481.993 488.451H481.981Z" fill="#514F8C"/>
<path d="M489.343 378.899L490.409 363.035L501.011 362.497L499.151 379.613C496.785 380.332 492.431 379.893 489.343 378.899Z" fill="#211E3F"/>
<path d="M505.423 279.005H516.038L533.031 398.871L533.018 398.872C533.054 399.292 532.802 399.717 532.247 400.037C531.202 400.641 529.508 400.641 528.463 400.037C528.02 399.783 527.776 399.459 527.71 399.125H527.699L505.423 279.005Z" fill="#211E3F"/>
<path d="M593.916 195.441C596.041 200.399 597.505 206.473 598.154 214.075C599.366 228.361 594.53 274.624 591.625 295.309L591.637 295.297C587.436 329.863 582.284 329.923 574.793 335.711C561.91 345.663 524.86 365.172 512.626 369.987C490.45 378.715 472.322 365.257 458.804 358.581C445.296 351.917 428.692 341.509 423 337.379C419.628 334.917 417.874 332.432 417.91 329.815C417.922 328.783 417.898 324.532 417.898 323.44C417.91 320.103 420.84 316.524 427.048 312.503C438.5 305.071 479.897 280.927 495.938 272.043C495.961 271.921 496.069 271.909 496.069 271.909C508.412 264.419 515.84 213.485 524.389 186.388C524.569 185.812 524.749 185.247 524.941 184.708C525.085 184.275 525.241 183.855 525.386 183.447C525.926 181.969 526.478 180.625 527.066 179.388L593.916 195.441Z" fill="#4A41AA"/>
<path d="M417.898 323.439C417.91 320.103 420.84 316.524 427.048 312.503C438.5 305.071 479.897 280.927 495.938 272.043C495.961 271.921 496.069 271.909 496.069 271.909C508.412 264.419 515.84 213.485 524.388 186.388C524.468 186.133 525.07 184.052 526.178 181.404C526.229 181.28 526.282 181.164 526.333 181.043C526.488 180.683 526.65 180.316 526.822 179.939C526.904 179.759 526.984 179.564 527.066 179.388L527.077 179.391C528.46 176.475 530.364 173.283 532.781 171.152C532.985 170.972 533.949 170.028 535.577 169.187C536.966 168.403 539.88 166.781 540.608 166.355C548.994 161.337 559.99 167.357 573.694 174.863C582.217 179.536 589.489 185.091 593.914 195.44L593.916 195.441C596.041 200.399 597.505 206.473 598.154 214.075C599.366 228.361 594.53 274.624 591.625 295.309L591.637 295.297C587.436 329.863 582.284 329.923 574.793 335.711C561.91 345.663 524.86 365.172 512.626 369.987C490.45 378.715 472.322 365.256 458.804 358.581C445.296 351.917 428.692 341.509 423.001 337.379C419.628 334.917 417.874 332.432 417.91 329.815C417.922 328.783 417.898 324.532 417.898 323.439Z" fill="#4A41AA"/>
<path d="M497.867 372.841C492.081 372.841 486.636 371.58 481.544 369.733C482.113 367.521 482.679 365.589 483.311 363.916C487.889 365.423 492.744 366.411 497.865 366.411C502.563 366.411 507.489 365.579 512.629 363.556C526.675 358.032 568.605 335.377 578.367 324.939C578.363 324.98 578.359 325 578.359 325C578.752 324.673 579.147 324.179 579.539 323.529C579.849 323.093 580.08 322.688 580.227 322.317C580.257 322.241 580.28 322.163 580.297 322.081C586.823 307.997 592.795 253.437 592.792 226.217C592.791 222.747 592.693 219.72 592.488 217.279C591.844 209.703 590.385 203.651 588.283 198.696L593.915 195.441C589.489 185.091 582.217 179.537 573.695 174.863C582.217 179.536 589.489 185.091 593.915 195.44L593.916 195.441C596.041 200.399 597.505 206.473 598.155 214.075C598.285 215.616 598.345 217.529 598.345 219.744C598.345 238.048 594.217 276.856 591.625 295.309L591.637 295.297C587.873 326.264 583.347 329.537 577.059 334.044C576.328 334.568 575.573 335.108 574.793 335.711C573.093 337.024 570.969 338.505 568.539 340.097C557.787 347.137 540.999 356.343 527.929 362.887C525.679 364.013 523.537 365.061 521.556 366.007C517.947 367.728 514.869 369.104 512.627 369.987C507.488 372.009 502.564 372.841 497.867 372.841ZM507.497 250.916C513.757 231.639 518.837 203.987 524.388 186.388C524.435 186.24 524.659 185.472 525.056 184.333C524.66 185.472 524.436 186.24 524.389 186.388C518.837 203.987 513.757 231.639 507.497 250.916ZM587.58 197.147C587.508 196.995 587.435 196.844 587.36 196.692C587.435 196.843 587.508 196.993 587.58 197.147ZM586.564 195.157C586.537 195.112 586.512 195.067 586.485 195.02C585.848 193.868 585.163 192.787 584.443 191.755C584.263 191.491 584.083 191.239 583.903 190.999C583.712 190.745 583.531 190.495 583.337 190.253C583.159 190.013 582.955 189.773 582.763 189.533C582.605 189.341 582.439 189.149 582.271 188.957C581.345 187.877 580.373 186.868 579.353 185.932C579.293 185.872 579.233 185.813 579.173 185.756C582.004 188.351 584.503 191.396 586.564 195.157ZM578.061 184.773C576.596 183.531 575.055 182.383 573.445 181.321C573.405 181.293 573.364 181.265 573.324 181.237C574.977 182.329 576.561 183.496 578.061 184.773ZM572.727 180.848C572.691 180.825 572.653 180.803 572.617 180.781C572.48 180.692 572.343 180.604 572.204 180.516C572.379 180.625 572.553 180.736 572.727 180.848ZM571.581 180.128C571.551 180.109 571.52 180.091 571.489 180.073C571.176 179.881 570.864 179.688 570.54 179.508C569.712 179.016 568.872 178.536 568.019 178.068C562.201 174.885 556.871 171.959 552.019 170.032C556.871 171.956 562.2 174.879 568.017 178.067C569.232 178.732 570.421 179.416 571.581 180.128ZM526.916 179.727C526.965 179.612 527.016 179.497 527.067 179.388L527.073 179.391C527.02 179.503 526.968 179.615 526.916 179.727ZM573.324 174.66C563.289 169.165 554.713 164.517 547.564 164.512C554.715 164.517 563.288 169.164 573.324 174.66ZM532.781 171.152C532.985 170.972 533.949 170.028 535.577 169.187C537.068 168.404 538.64 167.953 540.292 167.783C535.812 168.291 533.137 170.839 532.781 171.152Z" fill="#4A41AA"/>
<path d="M458.809 352.156C445.298 345.483 428.69 335.075 423.004 330.944C415.317 325.363 416.025 319.652 427.042 312.504C442.348 302.575 504.74 267.171 504.74 267.171C504.74 267.171 583.62 313.721 580.226 322.317C576.833 330.912 528.01 357.507 512.629 363.556C490.446 372.283 472.32 358.828 458.809 352.156Z" fill="#4A41AA"/>
<path d="M497.865 366.411C492.744 366.411 487.889 365.423 483.311 363.916C484.735 360.151 486.493 357.699 489.388 356.336C494.333 354.007 513.061 343.803 533.031 334.175C552.179 324.943 559.969 316.169 564.155 307.7C577.475 316.316 578.379 322.971 578.38 324.611C578.38 324.765 578.372 324.876 578.367 324.939C568.605 335.377 526.675 358.032 512.629 363.556C507.489 365.579 502.563 366.411 497.865 366.411ZM579.539 323.529C579.792 323.111 580.045 322.625 580.297 322.081C580.28 322.163 580.257 322.241 580.227 322.317C580.08 322.688 579.849 323.093 579.539 323.529Z" fill="#B6AFFF"/>
<path d="M535.577 169.187C543.881 164.829 554.67 170.753 568.017 178.067C576.568 182.753 583.853 188.307 588.278 198.699L593.914 195.441C589.489 185.091 582.217 179.537 573.694 174.863C559.99 167.357 548.994 161.337 540.608 166.355C539.88 166.781 536.966 168.403 535.577 169.187Z" fill="#4A41AA"/>
<path d="M588.282 198.696C588.146 198.375 588.006 198.057 587.865 197.745C587.77 197.545 587.676 197.347 587.58 197.147C587.508 196.993 587.434 196.843 587.36 196.692C587.309 196.587 587.257 196.481 587.205 196.377C587.049 196.065 586.892 195.752 586.724 195.452C586.674 195.355 586.62 195.256 586.564 195.157C584.502 191.396 582.004 188.351 579.173 185.756C578.98 185.571 578.785 185.397 578.584 185.224C578.41 185.072 578.236 184.923 578.061 184.773C576.561 183.496 574.977 182.329 573.324 181.237C573.124 181.101 572.925 180.971 572.726 180.848C572.553 180.736 572.378 180.625 572.204 180.516C571.998 180.384 571.792 180.255 571.581 180.128C570.421 179.416 569.232 178.732 568.017 178.067C562.2 174.879 556.87 171.956 552.018 170.032C548.36 168.58 544.974 167.695 541.857 167.695C541.313 167.695 540.792 167.725 540.292 167.783C538.64 167.953 537.068 168.404 535.577 169.187C536.966 168.403 539.88 166.781 540.608 166.355C542.752 165.072 545.064 164.512 547.549 164.512C554.79 164.512 563.492 169.276 573.694 174.863C582.217 179.537 589.489 185.091 593.914 195.441L588.282 198.696Z" fill="#211E3F"/>
<path d="M496.069 271.909C496.069 271.909 504.113 274.551 532.808 288.647C544.587 294.421 552.329 300.256 563.364 307.196C579.596 317.412 578.359 325 578.359 325C586.428 318.313 594.468 240.751 592.488 217.279C591.803 209.212 590.193 202.872 587.865 197.745C587.649 197.289 587.433 196.833 587.205 196.377C587.049 196.065 586.892 195.752 586.724 195.452C586.652 195.308 586.568 195.164 586.485 195.02C585.848 193.868 585.163 192.787 584.443 191.755C584.263 191.491 584.083 191.239 583.903 190.999C583.712 190.745 583.531 190.495 583.337 190.253C583.159 190.013 582.955 189.773 582.763 189.533C582.605 189.341 582.439 189.149 582.271 188.957C581.345 187.877 580.373 186.868 579.353 185.932C579.101 185.68 578.848 185.452 578.584 185.224C576.964 183.807 575.247 182.511 573.445 181.321C573.169 181.129 572.893 180.949 572.617 180.781C572.245 180.541 571.873 180.301 571.489 180.073C571.176 179.881 570.864 179.688 570.54 179.508C569.712 179.016 568.872 178.536 568.019 178.068C557.815 172.485 549.109 167.695 541.857 167.695C536.437 167.695 533.176 170.804 532.781 171.152C527.425 175.871 524.569 185.812 524.389 186.388C515.84 213.485 508.412 264.419 496.069 271.909Z" fill="#4A41AA"/>
<path d="M578.359 325C578.359 325 578.38 324.867 578.38 324.611C578.379 322.971 577.475 316.316 564.155 307.7C564.575 306.851 564.959 306.003 565.315 305.159C569.934 294.184 571.792 280.485 563.651 255.191L564.747 254.372L563.358 254.288L507.498 250.916C513.758 231.639 518.838 203.987 524.39 186.388C524.57 185.812 527.426 175.871 532.782 171.152C533.176 170.804 536.438 167.695 541.858 167.695C549.11 167.695 557.815 172.485 568.019 178.068C568.872 178.536 569.712 179.016 570.54 179.508C570.864 179.688 571.176 179.881 571.49 180.073C571.874 180.301 572.246 180.541 572.618 180.781C572.894 180.949 573.17 181.129 573.446 181.321C575.247 182.511 576.964 183.807 578.584 185.224C578.848 185.452 579.102 185.68 579.354 185.932C580.374 186.868 581.346 187.877 582.271 188.957C582.439 189.149 582.606 189.341 582.763 189.533C582.955 189.773 583.159 190.013 583.338 190.253C583.531 190.495 583.712 190.745 583.903 190.999C584.083 191.239 584.263 191.491 584.443 191.755C585.163 192.787 585.848 193.868 586.486 195.02C586.568 195.164 586.652 195.308 586.724 195.452C586.892 195.752 587.05 196.065 587.206 196.377C587.434 196.833 587.65 197.289 587.866 197.745C590.194 202.872 591.803 209.212 592.488 217.279C592.694 219.72 592.791 222.747 592.792 226.217C592.795 256.119 585.588 319.009 578.359 325Z" fill="#7266F4"/>
<path d="M466.125 383.049C473.713 382.003 480.236 388.06 480.863 390.001C481.709 392.624 481.44 397.941 478.367 404.509C475.703 410.203 474.507 419.167 475.081 425.164C475.656 431.163 478.557 446.124 472.529 453.668C466.5 461.213 453.067 467.811 448.257 457.523C446.684 454.16 449.792 442.465 451.168 433.937C453.911 416.948 456.017 400.073 456.017 400.073L466.125 383.049Z" fill="#211E3F"/>
<path d="M468.547 396.593C467.703 402.527 466.521 412.404 466.699 421.513C466.875 430.623 464.967 436.617 461.835 440.692C458.381 445.187 449.711 447.721 450.709 438.335C451.404 431.8 456.017 400.073 456.017 400.073L468.547 396.593Z" fill="#F6879F"/>
<path d="M451.169 447.335C451.252 446.712 451.362 446.041 451.509 445.275C451.72 445.219 451.83 445.184 451.83 445.184C451.83 445.184 451.985 444.856 452.353 444.097C452.497 444.197 452.649 444.284 452.808 444.359C452.226 445.373 451.677 446.368 451.169 447.335ZM466.709 422.401C466.708 422.109 466.704 421.812 466.698 421.513C466.66 419.529 466.685 417.511 466.758 415.503C472.366 404.069 475.497 394.3 477.565 386.404C477.833 386.605 478.088 386.809 478.328 387.011C478.698 392.617 475.72 407.527 468.168 420.027C467.694 420.811 467.208 421.603 466.709 422.401Z" fill="#122026"/>
<path d="M452.808 444.359C452.65 444.284 452.498 444.197 452.354 444.097C453.582 441.56 457.199 434.201 465.443 418.125C465.896 417.241 466.335 416.368 466.759 415.503C466.686 417.511 466.66 419.529 466.699 421.513C466.704 421.812 466.708 422.109 466.71 422.401C462.176 429.672 456.738 437.507 452.808 444.359Z" fill="#F27785"/>
<path d="M435.801 288.063C459.932 270.052 487.28 249.695 487.28 249.695L564.747 254.372L488.425 311.457L455.551 333.716C455.551 333.716 449.267 333.227 453.116 343.028C454.339 346.14 456.187 352.373 458.139 359.425L442.876 401.472C442.876 401.472 433.232 387.444 422.703 360.263C412.041 332.747 411.372 323.669 412.473 318.207C413.915 311.059 416.085 302.776 435.801 288.063Z" fill="#373657"/>
<path d="M450.01 288.92C443.774 293.715 437.8 298.815 432.222 304.269C429.454 307.007 426.769 309.853 424.517 312.923C423.437 314.447 422.386 316.12 422.065 317.669C421.692 319.557 421.43 321.439 421.333 323.335C421.166 327.121 421.502 330.959 422.213 334.763C422.868 338.575 423.801 342.361 424.797 346.14C426.873 353.717 428.8 361.336 430.713 368.972C427.845 361.637 425.27 354.197 422.884 346.705C421.653 342.948 420.608 339.119 419.822 335.205C419.069 331.297 418.581 327.256 418.85 323.191C418.976 321.163 419.281 319.147 419.694 317.185C420.265 314.876 421.498 313.219 422.694 311.573C425.164 308.352 428.025 305.585 430.966 302.933C436.885 297.671 443.276 292.996 450.01 288.92Z" fill="#514F8C"/>
<path d="M496.07 295.189C495.1 295.851 490.811 298.848 489.686 299.643C474.496 310.391 448.84 331.207 445.97 340.324C444.184 345.968 437.432 362.412 433.726 383.751C433.726 383.751 434.2 369.611 434.727 355.756C435.464 336.379 438.976 330.923 445.262 323.764C451.332 316.877 483.646 297.149 485.896 295.829C480.315 291.417 477.575 282.316 477.584 277.721C477.584 277.721 485.775 291.635 496.07 295.189Z" fill="#514F8C"/>
<path d="M451.098 451.949C453.072 451.82 453.202 455.196 454.402 459.477C455.179 462.252 456.659 466.887 455.042 472.308C453.424 477.729 444.874 478.84 440.672 486.041C436.471 493.243 430.451 506.148 415.318 510.475C400.183 514.801 388.132 510.543 384.946 506.168C381.759 501.794 384.03 497.284 393.463 490.989C403.478 484.305 406.311 482.347 406.311 482.347L451.098 451.949Z" fill="#211E3F"/>
<path d="M430.568 426.469C430.568 426.469 426.766 443.459 422.914 453.193C419.064 462.929 412.558 472.351 405.23 481.224C403.634 483.157 399.982 486.764 398.677 488.328C397.514 489.719 397.357 491.3 399.094 492.887C402.514 496.012 416.725 496.445 424.542 490.3C432.358 484.156 439.31 471.288 443.944 466.381C445.684 464.536 447.32 462.655 448.87 460.661C450.365 458.74 451.292 456.376 451.156 454.263C450.889 450.171 450.845 448.696 451.544 445.097C452.516 440.08 453.56 438.116 455.012 433.217L430.568 426.469Z" fill="#F6879F"/>
<path d="M563.357 254.288C571.836 280.161 569.988 294.053 565.315 305.159C561.42 314.412 554.101 324.016 533.031 334.175C513.061 343.803 494.333 354.007 489.388 356.336C484.441 358.664 482.812 364.171 480.508 373.98C478.321 383.293 475.583 398.351 465.443 418.125C454.732 439.011 451.831 445.184 451.831 445.184C451.831 445.184 437.305 449.697 426.843 439.923C426.843 439.923 436.376 359.964 438.731 347.012C440.309 338.327 442.628 333.529 449.579 327.284C465.728 312.772 495.575 295.295 495.575 295.295C495.575 295.295 493.345 268.911 498.504 254.372L563.357 254.288Z" fill="#373657"/>
<path d="M435.316 423.623C436.362 411.984 437.647 400.372 439.192 388.793C440.738 377.209 442.394 365.655 444.703 354.139C445.002 352.699 445.354 351.261 445.696 349.819L446.334 347.639L447.124 345.507C448.276 342.703 449.814 340.059 451.648 337.679C455.331 332.912 459.86 329.004 464.583 325.515C469.294 321.991 474.259 318.867 479.178 315.737C484.131 312.643 489.042 309.485 494.036 306.451C489.347 309.937 484.572 313.297 479.84 316.723C475.072 320.104 470.306 323.445 465.768 327.052C461.258 330.669 456.916 334.532 453.554 339.103C451.883 341.385 450.447 343.824 449.407 346.432L448.69 348.411L448.112 350.436C447.791 351.836 447.459 353.236 447.172 354.656C445.979 360.328 444.999 366.079 444.027 371.825L441.146 389.083C439.275 400.6 437.336 412.115 435.316 423.623Z" fill="#514F8C"/>
<path d="M367.258 130.959C368.832 130.536 370.526 130.775 372.056 131.333C374.55 132.241 376.616 133.92 378.924 135.175C382.439 137.087 388.092 140.221 392.162 140.041C392.99 140.005 394.696 139.675 393.571 138.645C392.103 137.301 390.51 136.068 389.294 134.493C388.075 132.92 387.254 130.903 387.623 128.948C387.734 128.359 387.975 127.76 388.455 127.4C389.138 126.895 389.608 127.216 390.143 127.62C390.708 128.044 391.346 128.372 391.964 128.724C393.242 129.447 394.519 130.172 395.784 130.913C403.178 135.243 410.572 140.303 414.944 147.885C415.579 148.988 419.398 157.649 421.863 162.537C423.874 166.992 439.078 194.905 439.078 194.905L466.191 168.477C472.259 162.409 478.322 156.783 483.704 154.716C487.564 153.232 492.898 151.253 492.898 151.253L483 197.683C483 197.683 454.359 219.227 450.272 222.185C444.2 226.579 432.08 233.693 426.063 226.26C417.904 216.181 413.928 201.64 410.112 190.544C406.299 179.448 404.263 172.713 402.078 168.887C399.892 165.061 396.303 164.799 393.784 164.011C389.183 162.572 388.039 162.028 383.835 159.667C381.067 158.111 378.458 156.247 376.19 154.021C375.239 153.088 373.648 151.775 373.232 150.476C372.844 149.261 373.062 147.927 372.522 146.697C371.915 145.317 370.675 144.26 370.223 142.823C369.87 141.692 370.048 140.475 369.994 139.291C369.907 137.411 368.754 136.32 367.447 135.12C366.814 134.539 366.103 133.973 365.796 133.168C365.306 131.876 366.19 131.247 367.258 130.959Z" fill="#F6879F"/>
<path d="M427.504 172.581L423.73 166.276C423.73 166.276 422.144 171.233 416.036 175.303C409.927 179.371 405.802 177.891 405.802 177.891L408.026 185.48C408.026 185.48 412.636 187.193 419.938 182.375C427.239 177.555 427.504 172.581 427.504 172.581Z" fill="#4A41AA"/>
<path d="M498.406 147.992C487.272 148.74 479.886 153.365 473.544 158.673C467.212 163.971 439.408 190.053 439.408 190.053L426.289 169.863C426.289 169.863 425.538 175.44 417.904 179.865C409.854 184.531 406.946 182.944 406.946 182.944C406.946 182.944 412.925 206.94 419.498 218.745C426.07 230.549 429.822 234.391 440.56 229.549C451.297 224.707 487.938 197.38 487.938 197.38L498.406 147.992Z" fill="#211E3F"/>
<path d="M396.796 143.576C398.496 148.217 403.169 153.477 405.885 155.001C405.885 155.001 401.443 154.549 399.126 151.549C396.587 148.264 396.555 145.448 396.796 143.576Z" fill="#F47089"/>
<path d="M439.408 190.053C444.002 198.012 445.435 208.236 444.482 213.465C447.815 205.044 448.051 196.196 442.382 187.271L439.408 190.053Z" fill="#040606"/>
<path d="M529.604 66.0747C536.417 62.4387 544.961 62.4 550.849 65.2627C560.091 69.7534 561.944 74.82 563.092 85.5427C564.816 101.643 566.075 106.485 568.104 110.095C570.305 114.015 573.505 115.773 576.3 116.62C574.565 117.803 571.057 119.057 567.168 117.296C569.045 125.001 571.519 131.451 569.775 139.719C568.601 145.289 565.916 151.641 561.791 155.741C558.276 159.232 553.124 160.432 548.827 162.48C551.561 156.072 552.949 150.063 550.687 143.035C548.189 135.281 542.727 128.788 540.141 120.976C536.565 110.169 532.504 98.9894 531.224 87.636C530.141 78.032 529.743 72.664 529.604 66.0747Z" fill="#211E3F"/>
<path d="M528.088 65.4094C529.061 63.7241 535.339 62.7307 540.283 65.9747C545.227 69.22 549.305 74.8787 545.903 79.592C542.711 84.0147 521.521 71.9774 528.088 65.4094Z" fill="#4A41AA"/>
<path d="M547.844 151.851C557.183 155.519 558.153 155.821 558.153 155.821C560.089 160.911 568.729 174.919 566.451 188.597C564.172 202.275 557.163 231.251 558.655 236.96C560.147 242.669 568.07 258.529 570.88 275.591C570.88 275.591 565.276 278.944 560.258 281.191C560.258 281.191 557.097 261.389 551.856 254.372C552.54 269.637 551.856 279.904 551.856 279.904C551.856 279.904 530.027 288.591 503.791 281.059C476.463 273.213 474.443 259.256 474.443 259.256C474.443 259.256 479.184 241.624 479.184 232.645C479.184 223.667 477.552 209.135 477.552 209.135C477.552 209.135 465.812 197.625 469.764 184.761C473.503 172.584 494.072 152.18 498.407 147.992C506.076 147.992 510.48 147.028 510.48 147.028L547.844 151.851Z" fill="#514F8C"/>
<path d="M538.399 151.037C537.065 157.705 534.399 159.335 526.843 167.632C519.288 175.928 495.622 198.532 493.453 208.341C492.026 199.928 490.101 188.657 492.324 178.811C494.546 168.964 499.931 155.892 508.416 149.235L537.654 147.992L538.399 151.037Z" fill="#4A41AA"/>
<path d="M486.867 100.561C479.805 74.516 503.812 61.196 527.703 65.396C535.571 66.7787 545.727 71.2787 546.816 82.4934C557.211 85.752 562.211 99.6667 555.791 114.52C551.133 125.296 541.831 130.667 537.612 137.283L486.867 100.561Z" fill="#211E3F"/>
<path d="M547.292 104.287C540.613 101.371 537.251 108.361 537.251 108.361C532.908 111.071 530.405 102.36 529.452 99.736C527.788 95.152 526.215 88.624 521.137 86.724C517.364 85.312 513.101 86.7147 509.645 88.784C507.54 90.0453 505.101 90.348 502.733 89.7027C500.669 89.14 500.016 85.9053 498.132 84.8947C492.704 81.9813 488.493 90.9093 487.748 95.1947C486.624 101.653 486.385 107.145 486.495 112.507C486.889 131.913 493.399 139.804 496.689 141.581C499.98 143.359 504.049 143.84 510.54 143.304L510.445 149.033C510.445 149.033 506.491 156.689 505.787 169.003C520.08 164.293 528.715 157.835 537.656 149.305L537.616 123.269C538.84 125.811 544.596 127.019 548.157 122.457C552.773 116.548 553.696 107.081 547.292 104.287Z" fill="#F6879F"/>
<path d="M512.982 125.187L503.917 127.991C504.645 130.583 507.264 132.059 509.765 131.284C512.269 130.511 513.708 127.781 512.982 125.187Z" fill="#B86C77"/>
<path d="M512.387 127.272C509.857 127.187 507.689 128.919 507.133 131.293C507.965 131.54 508.872 131.561 509.765 131.284C511.561 130.729 512.793 129.163 513.087 127.367C512.856 127.327 512.628 127.28 512.387 127.272Z" fill="#F47089"/>
<path d="M510.54 143.304C516.827 142.337 528.309 139.269 530.217 134.097C530.217 134.097 530.504 138.3 525.64 142.003C521.579 145.096 510.48 147.028 510.48 147.028L510.54 143.304Z" fill="#F47089"/>
<path d="M490.124 96.2533L496.588 98.18C497.192 96.4013 496.233 94.528 494.448 93.996C492.665 93.464 490.728 94.4747 490.124 96.2533Z" fill="#211E3F"/>
<path d="M519.199 100.053L513.279 96.8213C514.117 95.1387 516.123 94.5 517.757 95.3934C519.391 96.2867 520.037 98.3733 519.199 100.053Z" fill="#211E3F"/>
<path d="M491.276 107.911C491.154 109.477 492.276 110.84 493.784 110.955C495.294 111.069 496.616 109.892 496.739 108.324C496.863 106.757 495.739 105.395 494.231 105.28C492.723 105.165 491.399 106.343 491.276 107.911Z" fill="#211E3F"/>
<path d="M511.95 109.455C511.827 111.02 512.95 112.384 514.459 112.499C515.968 112.613 517.29 111.436 517.414 109.868C517.536 108.3 516.414 106.939 514.906 106.824C513.396 106.709 512.074 107.887 511.95 109.455Z" fill="#211E3F"/>
<path d="M483.345 102.313C483.576 102.1 483.92 101.889 484.377 101.709L484.457 101.679C484.6 101.621 484.751 101.571 484.916 101.523L485.197 101.448L485.431 101.395L485.587 101.363L485.647 101.352L485.879 101.309C486.18 101.259 486.507 101.223 486.856 101.201C487.028 101.188 487.207 101.18 487.388 101.179L487.711 101.173L487.956 101.176C488.175 101.183 488.404 101.189 488.636 101.207L488.887 101.224L489.12 101.243C489.729 101.3 490.387 101.396 491.091 101.536C494.14 102.14 497.339 103.72 498.187 105.013C499.035 106.307 498.888 108.893 498.527 111.096C498.452 111.531 498.343 112.036 498.165 112.565L498.127 112.679L498.076 112.827L498.04 112.925L497.968 113.1C497.919 113.223 497.865 113.341 497.809 113.46L497.656 113.767L497.596 113.873L497.475 114.077L497.363 114.253L497.345 114.283C496.313 115.845 494.444 117.139 491.055 116.829C489.779 116.72 488.72 116.376 487.852 115.891C484.805 114.193 483.98 110.756 483.596 109.164C483.109 107.124 482.456 103.132 483.345 102.313ZM508.471 105.759C508.7 105.428 509.135 105.096 509.716 104.799L509.941 104.684L510.064 104.625C510.26 104.535 510.467 104.445 510.685 104.365C510.867 104.295 511.059 104.225 511.26 104.16C511.836 103.967 512.476 103.8 513.14 103.668C513.387 103.619 513.637 103.572 513.891 103.533C514.531 103.429 515.18 103.364 515.832 103.332C515.991 103.324 516.143 103.317 516.287 103.321C520.549 103.205 523.227 104.355 524.208 105.281C525.225 106.243 524.832 110.155 524.459 112.132L524.431 112.277L524.401 112.432C524.356 112.671 524.301 112.941 524.231 113.229C524.192 113.388 524.148 113.553 524.101 113.723L524.093 113.743C524.02 114.008 523.929 114.281 523.823 114.563V114.565L523.709 114.845L523.636 115.012L523.551 115.196L523.437 115.429L523.297 115.687L523.132 115.959L522.949 116.232C521.915 117.704 520.144 118.896 517.031 118.717C513.952 118.544 511.972 117.38 510.695 115.977L510.691 115.976C509.424 114.577 508.844 112.948 508.561 111.825C508.001 109.555 507.659 106.929 508.471 105.759ZM479.28 101.411C479.387 102.631 480.181 103.803 480.588 104.297C480.801 104.557 481 104.897 481.109 105.329C481.608 107.277 482.063 110.943 483.008 113.039C483.956 115.133 485.92 118.48 491.296 118.893C492.341 118.976 493.268 118.941 494.084 118.811L494.293 118.776C495.16 118.621 495.904 118.353 496.549 118.007L496.683 117.931L496.875 117.819C496.931 117.784 496.987 117.748 497.116 117.663L497.339 117.505L497.581 117.319L497.815 117.121C497.967 116.988 498.108 116.849 498.245 116.701C499.027 115.883 499.585 114.901 500.023 113.905C501.165 111.309 500.799 107.568 502.74 107.244L502.972 107.223L503.224 107.225C505.872 107.408 505.641 111.448 507.167 114.424C508.691 117.403 511.183 120.364 516.925 120.756C517.181 120.775 517.431 120.783 517.668 120.791C517.872 120.791 518.069 120.792 518.26 120.783C518.752 120.773 519.213 120.728 519.639 120.661C519.787 120.636 519.932 120.612 520.071 120.584C520.212 120.556 520.352 120.52 520.485 120.488L520.745 120.42C521.328 120.248 521.836 120.031 522.288 119.775C522.468 119.669 522.636 119.564 522.804 119.451C523.128 119.227 523.413 118.987 523.691 118.712C524.539 117.865 525.043 116.904 525.388 116.116C526.248 114.155 526.425 110.524 526.837 108.652C526.948 108.155 527.1 107.813 527.26 107.579C527.623 107.051 528.496 106.144 528.509 104.928C528.525 103.712 527.652 102.607 526.875 102.452C526.423 102.363 525.949 102.275 525.463 102.188C520.924 101.395 515.012 100.832 511.495 101.599C507.081 102.569 505.568 103.903 503.097 103.733C500.784 103.555 499.263 102.003 495.044 100.405C491.677 99.136 486.157 98.8693 481.944 99.0253C481.495 99.0413 481.057 99.064 480.641 99.0907C479.921 99.1373 479.172 100.189 479.28 101.411Z" fill="#514F8C"/>
<path d="M527.1 102.811L540.04 105.016C539.213 105.68 538.212 106.713 537.524 107.868L527.035 106.081L527.1 102.811Z" fill="#514F8C"/>
<path d="M504.316 107.607L502.596 123.409L493.299 120.144L503.393 107.244C503.757 107.312 504.09 107.423 504.316 107.607Z" fill="#F47089"/>
<path d="M540.264 120.099C540.264 121.457 541.365 122.56 542.725 122.56C544.085 122.56 545.188 121.457 545.188 120.099C545.188 118.739 544.085 117.636 542.725 117.636C541.365 117.636 540.264 118.739 540.264 120.099Z" fill="#FAFAF9"/>
<path d="M537.65 145.013L537.655 147.992C537.655 147.992 530.071 158.829 520.35 169.547C508.875 182.199 499.084 191.825 495.562 200.595C492.04 209.364 490.671 220.261 490.671 220.261C490.671 220.261 493.728 206.277 507.687 195.092C516 188.432 529.428 183.325 531.963 179.084C534.346 175.101 529.546 169.547 529.546 169.547C529.546 169.547 537.719 166.935 542.726 163.317C547.732 159.699 547.844 151.851 547.844 151.851L537.65 145.013Z" fill="#211E3F"/>
<path d="M510.445 149.033C505.787 153.471 498.473 163.84 496.351 175.104C494.228 186.368 493.299 211.999 493.299 211.999C493.299 211.999 490.311 194.693 488.677 187.348C487.045 180.001 486.215 174.335 494.228 166.777C492.255 163.359 491.905 162.068 496.088 157.077C500.269 152.085 503.889 149.817 503.889 149.817L510.445 145.623V149.033Z" fill="#211E3F"/>
<path d="M493.804 245.667C489.328 245.208 485.028 241.085 479.279 238.895C473.499 236.692 468.607 236.649 464.666 235.043C463.035 235.972 463.879 239.403 465.819 240.889C468.82 243.189 473.411 244.636 472.323 245.856C470.702 247.671 464.506 246.425 462.623 246.036C456.83 244.836 450.676 241.357 444.627 242.64C443.996 242.773 443.328 243.003 442.971 243.541C442.472 244.295 442.812 245.353 443.439 246.004C444.063 246.656 444.914 247.033 445.666 247.533C446.42 248.032 447.131 248.751 447.2 249.652C447.264 250.475 446.775 251.275 446.878 252.093C446.943 252.62 447.248 253.084 447.579 253.499C448.188 254.264 448.916 254.936 449.728 255.481C450.396 255.929 451.126 256.297 451.718 256.843C452.758 257.803 454.495 259.101 455.232 260.308C458.399 265.477 465.206 267.029 470.72 267.987C482.515 270.035 487.938 267.552 494.899 267.687C501.862 267.82 531.479 266.916 546.691 265.825C562.632 264.683 564.56 261.721 569.052 246.511C574.15 229.256 579.347 204.728 580.992 192.228C583.503 173.132 574.771 162.776 560.815 157.309C557.51 160.231 550.227 174 547.034 199.309L540.212 237.48C540.212 237.48 498.28 246.127 493.804 245.667Z" fill="#F6879F"/>
<path d="M505.046 243.763L497.666 245.373C497.666 245.373 498.843 250.333 499.004 256.843C499.166 263.353 497.935 267.693 497.935 267.693L506.926 267.951C506.926 267.951 511.996 253.951 505.046 243.763Z" fill="#4A41AA"/>
<path d="M558.154 155.821C566.731 158.847 573.036 162.119 577.408 169.003C581.782 175.887 582.598 184.44 580.792 198.699C578.988 212.957 570.167 247.609 567.683 255.528C565.199 263.447 563.735 265.236 555.279 266.699C546.823 268.163 503.564 268.567 503.564 268.567C503.564 268.567 505.191 263.935 504.542 255.64C503.89 247.347 502.284 243.763 502.284 243.763L539.684 236.971C539.684 236.971 545.61 201.288 547.732 190.085C549.855 178.883 551.716 169.003 558.154 155.821Z" fill="#211E3F"/>
<path d="M539.684 236.971C544.843 236.408 553.5 239.871 556.056 244.653C554.984 239.624 549.649 234.095 540.212 234.132L539.684 236.971Z" fill="#040606"/>
<path d="M249.276 451.619L237.763 327.065L227.08 326.523L243.896 451.604H243.908C243.959 451.943 244.188 452.281 244.62 452.561C245.64 453.221 247.345 453.308 248.428 452.753C249.003 452.46 249.277 452.044 249.264 451.619H249.276Z" fill="#211E3F"/>
<path d="M237.763 327.065L227.08 326.523L230.223 347.211C232.787 346.247 233.788 345.783 236.549 344.3C238.017 343.512 239.255 342.419 239.372 341.885L237.763 327.065Z" fill="#211E3F"/>
<path d="M95.7906 311.065H85.0937L67.9688 429.54L67.9807 429.541C67.9463 429.964 68.1989 430.393 68.7584 430.716C69.8109 431.324 71.5182 431.324 72.5707 430.716C73.0166 430.459 73.2619 430.132 73.3307 429.797H73.3422L95.7906 311.065Z" fill="#514F8C"/>
<path d="M85.0928 311.065L80.9346 339.835C82.8742 341.515 86.9606 343.887 89.3742 345L95.7898 311.065H85.0928Z" fill="#211E3F"/>
<path d="M177.8 488.193L169.305 361.801L158.621 361.26L172.42 488.177H172.432C172.482 488.517 172.712 488.855 173.144 489.135C174.165 489.795 175.869 489.881 176.952 489.328C177.526 489.033 177.801 488.617 177.788 488.193H177.8Z" fill="#514F8C"/>
<path d="M170.38 377.789L169.305 361.801L158.621 361.26L160.497 378.509C162.88 379.233 167.269 378.791 170.38 377.789Z" fill="#211E3F"/>
<path d="M154.176 277.119H143.479L126.354 397.916L126.366 397.917C126.331 398.34 126.584 398.769 127.143 399.092C128.196 399.7 129.903 399.7 130.956 399.092C131.402 398.835 131.648 398.509 131.716 398.172L131.727 398.173L154.176 277.119Z" fill="#211E3F"/>
<path d="M64.9945 192.904C62.8524 197.9 61.3762 204.023 60.7232 211.683C59.5008 226.08 64.3742 272.703 67.3024 293.549L67.2898 293.537C71.5253 328.372 76.7158 328.433 84.2658 334.265C97.2481 344.295 134.587 363.956 146.916 368.808C169.264 377.604 187.534 364.041 201.158 357.313C214.77 350.599 231.503 340.108 237.239 335.945C240.638 333.465 242.404 330.961 242.368 328.324C242.356 327.283 242.38 323 242.38 321.899C242.368 318.535 239.416 314.929 233.162 310.876C221.618 303.387 179.899 279.055 163.735 270.101C163.711 269.98 163.602 269.968 163.602 269.968C151.163 262.419 143.676 211.089 135.062 183.781C134.88 183.2 134.699 182.632 134.506 182.087C134.36 181.651 134.203 181.228 134.058 180.816C133.514 179.328 132.956 177.973 132.363 176.727L64.9945 192.904Z" fill="#4A41AA"/>
<path d="M242.38 321.899C242.368 318.535 239.416 314.929 233.16 310.876C221.618 303.387 179.899 279.055 163.735 270.101C163.711 269.98 163.602 269.968 163.602 269.968C151.163 262.419 143.676 211.089 135.062 183.781C134.982 183.524 134.375 181.428 133.259 178.757C133.207 178.632 133.153 178.517 133.102 178.393C132.947 178.031 132.782 177.661 132.61 177.281C132.526 177.1 132.448 176.904 132.363 176.727L132.353 176.729C130.959 173.791 129.041 170.573 126.604 168.427C126.399 168.245 125.427 167.293 123.787 166.445C122.387 165.656 119.45 164.021 118.716 163.592C110.266 158.536 99.1836 164.603 85.3726 172.165C76.7841 176.876 69.456 182.472 64.9956 192.904H64.9945C62.8524 197.9 61.3762 204.023 60.7232 211.683C59.5008 226.08 64.3742 272.703 67.3024 293.549L67.2898 293.537C71.5253 328.372 76.7158 328.433 84.2658 334.265C97.2481 344.295 134.587 363.956 146.916 368.808C169.264 377.604 187.534 364.041 201.158 357.313C214.77 350.599 231.503 340.108 237.239 335.945C240.638 333.465 242.406 330.961 242.368 328.324C242.356 327.283 242.38 323 242.38 321.899Z" fill="#4A41AA"/>
<path d="M161.789 371.685C157.056 371.684 152.094 370.847 146.916 368.808C144.656 367.919 141.554 366.532 137.917 364.797C135.921 363.845 133.762 362.788 131.494 361.652C118.323 355.057 101.404 345.78 90.5678 338.685C88.1184 337.081 85.9793 335.589 84.2652 334.265C83.4793 333.657 82.7189 333.113 81.9824 332.585C75.6449 328.044 71.0834 324.745 67.2892 293.537L67.3017 293.549C64.6892 274.952 60.5293 235.843 60.5293 217.396C60.5293 215.165 60.5902 213.236 60.7225 211.683C61.3756 204.023 62.8517 197.9 64.9938 192.904H64.9949C64.9944 192.904 64.9944 192.904 64.9944 192.904L70.6704 196.185C68.5501 201.179 67.0802 207.277 66.434 214.912C66.225 217.384 66.1266 220.451 66.1272 223.969C66.1308 251.417 72.146 306.344 78.7173 320.529C78.735 320.612 78.7584 320.691 78.7886 320.768C78.9365 321.141 79.1698 321.551 79.4818 321.989C79.8777 322.644 80.2746 323.143 80.6714 323.472C80.6714 323.472 80.6678 323.451 80.6636 323.409C90.5012 333.929 132.757 356.76 146.912 362.328C152.093 364.365 157.057 365.204 161.792 365.204C164.738 365.204 167.598 364.879 170.368 364.319C172.648 365.801 174.85 367.229 176.769 369.067C172.062 370.644 167.068 371.685 161.789 371.685ZM71.3438 194.696C71.4506 194.471 71.5584 194.248 71.6684 194.027C71.558 194.251 71.4506 194.473 71.3438 194.696ZM70.8032 183.392C70.8032 183.391 70.8032 183.393 70.8032 183.392Z" fill="#4A41AA"/>
<path d="M201.152 350.839C214.768 344.113 231.504 333.624 237.234 329.463C244.981 323.836 244.269 318.08 233.165 310.879C217.741 300.872 154.862 265.192 154.862 265.192C154.862 265.192 75.3695 312.105 78.7889 320.768C82.2086 329.429 131.411 356.231 146.912 362.328C169.268 371.123 187.536 357.563 201.152 350.839Z" fill="#4A41AA"/>
<path d="M161.792 365.204C157.057 365.204 152.093 364.365 146.912 362.328C132.758 356.76 90.5016 333.929 80.664 323.409C80.6579 323.347 80.65 323.237 80.65 323.084C80.6495 321.68 81.3047 316.573 89.887 309.691C95.5042 318.599 105.049 325.852 125.083 337.683C143.387 348.491 164.811 360.679 169.441 363.715C169.752 363.917 170.06 364.119 170.368 364.319C167.599 364.879 164.739 365.204 161.792 365.204ZM79.4823 321.989C79.1703 321.551 78.937 321.141 78.7891 320.768C78.7588 320.691 78.7355 320.612 78.7178 320.529C78.9719 321.077 79.2271 321.567 79.4823 321.989Z" fill="#B6AFFF"/>
<path d="M123.787 166.445C115.419 162.053 104.545 168.024 91.0935 175.395C82.4774 180.117 75.1358 185.713 70.6749 196.187L64.9951 192.904C69.4561 182.473 76.7842 176.876 85.3727 172.167C99.1837 164.603 110.266 158.536 118.716 163.592C119.45 164.021 122.387 165.656 123.787 166.445Z" fill="#4A41AA"/>
<path d="M70.6711 196.185L64.9951 192.904C66.5894 189.176 68.5503 186.065 70.8039 183.392C70.9976 186.397 71.4243 189.628 72.1602 193.065C72.0211 193.321 71.8894 193.584 71.7582 193.848C71.7279 193.908 71.6982 193.967 71.6691 194.027C71.5591 194.248 71.4514 194.471 71.3446 194.696C71.2602 194.873 71.1763 195.049 71.0924 195.227C70.9492 195.541 70.8091 195.861 70.6711 196.185Z" fill="#DE9FD4"/>
<path d="M135.062 183.781C134.88 183.2 132.001 173.181 126.604 168.427C126.206 168.076 122.92 164.941 117.457 164.941C110.149 164.941 101.377 169.771 91.0923 175.396C90.234 175.868 89.3866 176.352 88.5518 176.848C88.2247 177.029 87.91 177.223 87.596 177.416C87.2086 177.647 86.8335 177.888 86.4586 178.131C86.1804 178.3 85.9018 178.481 85.6231 178.675C83.8086 179.873 82.0783 181.18 80.445 182.608C80.1794 182.837 79.9247 183.067 79.6704 183.321C78.6419 184.265 77.6622 185.281 76.7304 186.371C76.5611 186.564 76.3914 186.757 76.2346 186.951C76.0414 187.192 75.8356 187.435 75.6538 187.677C75.4595 187.919 75.2788 188.173 75.0851 188.427C74.9038 188.669 74.722 188.923 74.5408 189.189C73.8147 190.229 73.1247 191.319 72.483 192.48C72.3991 192.625 72.3147 192.771 72.2419 192.916C72.0726 193.219 71.9147 193.533 71.758 193.848C71.5283 194.307 71.31 194.768 71.0923 195.227C68.745 200.393 67.1231 206.781 66.4346 214.912C64.4376 238.567 72.5414 316.732 80.672 323.472C80.672 323.472 79.4256 315.825 95.784 305.528C106.904 298.535 114.708 292.655 126.577 286.835C155.495 272.631 163.602 269.968 163.602 269.968C151.163 262.419 143.676 211.089 135.062 183.781Z" fill="#4A41AA"/>
<path d="M80.6722 323.472C73.391 317.436 66.1315 254.123 66.1279 223.969C66.1274 220.451 66.2258 217.384 66.4347 214.912C67.1233 206.781 68.7451 200.393 71.0925 195.227C71.3102 194.768 71.5285 194.307 71.7582 193.848C71.8894 193.584 72.0211 193.321 72.1602 193.065C72.2473 193.472 72.3383 193.881 72.4347 194.293C76.6301 212.333 80.1957 219.171 80.9566 238.001C81.9457 262.463 81.5837 284.417 81.5837 284.417C81.8201 284.497 82.0555 284.575 82.2946 284.651C82.6738 290.085 83.6462 295.563 85.8587 301.445C86.9806 304.429 88.2717 307.129 89.8873 309.691C81.305 316.573 80.6498 321.68 80.6503 323.084C80.6509 323.339 80.6722 323.472 80.6722 323.472Z" fill="#7266F4"/>
<path d="M182.285 431.52L192.12 433.443L192.844 426.429L185.11 427.968L182.285 431.52Z" fill="#040606"/>
<path d="M182.919 412.028C182.919 412.028 179.396 417.029 178.315 418.623C177.233 420.216 181.072 429.611 182.285 431.52L185.111 427.968C185.677 430.388 185.401 432.844 185.283 436.637C185.185 439.8 184.173 445.273 186.009 450.563C188.737 458.413 195.883 465.953 204.404 471.649C212.924 477.344 219.237 478.281 222.881 477.921C226.527 477.56 228.676 475.833 229.423 473.236C230.171 470.64 182.919 412.028 182.919 412.028Z" fill="#211E3F"/>
<path d="M217.178 408.683L219.144 405.732C220.78 406.675 218.279 411.16 218.26 416.439C218.234 423.535 218.89 432.849 220.85 439.696C224.719 453.204 229.487 463.129 231.192 469.189C233.476 477.299 219.446 479.289 205.711 469.715C198.892 464.96 188.539 453.671 187.59 447.323C186.64 440.975 188.487 433.133 187.535 428.36C186.583 423.588 182.408 416.793 182.919 412.028C183.2 409.412 186.622 405.007 189.674 401.353C192.474 398 196.064 392.427 197.856 394.163L196.835 396.147C196.69 398.28 197.015 402.148 202.116 406.623C204.664 408.857 212.987 414.344 217.178 408.683Z" fill="#514F8C"/>
<path d="M205.666 417.051L205.508 416.809C205.458 416.587 205.596 416.367 205.819 416.317C206.1 416.253 212.776 414.799 218.056 418.495L218.063 418.499C218.243 418.631 218.286 418.883 218.156 419.067C218.027 419.253 217.771 419.299 217.583 419.167C212.599 415.681 206.064 417.105 205.999 417.12C205.879 417.147 205.758 417.117 205.666 417.051Z" fill="#211E3F"/>
<path d="M207.014 424.268L206.855 424.027C206.804 423.804 206.943 423.584 207.166 423.535C207.447 423.471 214.123 422.016 219.404 425.712L219.41 425.716C219.59 425.848 219.632 426.101 219.503 426.285C219.374 426.471 219.118 426.516 218.931 426.384C213.955 422.903 207.412 424.323 207.347 424.337C207.226 424.364 207.106 424.335 207.014 424.268Z" fill="#211E3F"/>
<path d="M208.336 431.515L208.178 431.273C208.128 431.051 208.268 430.831 208.489 430.781C208.77 430.717 215.445 429.263 220.726 432.959L220.733 432.963C220.914 433.095 220.956 433.347 220.828 433.531C220.697 433.717 220.441 433.763 220.253 433.631C215.278 430.149 208.734 431.569 208.67 431.583C208.549 431.611 208.428 431.581 208.336 431.515Z" fill="#211E3F"/>
<path d="M209.671 438.747L209.513 438.505C209.463 438.283 209.601 438.064 209.823 438.013C210.105 437.949 216.781 436.493 222.063 440.189L222.069 440.193C222.249 440.325 222.292 440.577 222.163 440.761C222.032 440.948 221.776 440.993 221.589 440.863C216.613 437.38 210.069 438.801 210.005 438.816C209.884 438.843 209.763 438.813 209.671 438.747Z" fill="#211E3F"/>
<path d="M211.008 445.979L210.849 445.737C210.799 445.515 210.939 445.295 211.16 445.245C211.443 445.181 218.117 443.725 223.399 447.421L223.405 447.427C223.585 447.559 223.628 447.811 223.499 447.995C223.368 448.181 223.112 448.227 222.925 448.095C217.949 444.613 211.405 446.033 211.341 446.048C211.22 446.075 211.1 446.045 211.008 445.979Z" fill="#211E3F"/>
<path d="M229.92 500.952L239.385 496.639L235.763 490.28L230.163 496.246L229.92 500.952Z" fill="#040606"/>
<path d="M218.687 484.111C218.687 484.111 218.731 490.46 218.78 492.458C218.828 494.457 227.743 500.073 229.92 500.952L230.163 496.246C232.101 497.949 233.351 500.189 235.541 503.465C237.368 506.194 239.819 511.427 244.561 514.784C251.605 519.769 262.192 521.821 272.827 521.487C283.46 521.151 289.359 518.133 292.217 515.627C295.077 513.123 295.849 510.365 294.913 507.721C293.976 505.077 218.687 484.111 218.687 484.111Z" fill="#211E3F"/>
<path d="M245.597 460.601L245.476 456.921C247.427 456.731 248.024 462.028 251.193 466.497C255.457 472.505 261.633 479.976 267.423 484.575C278.847 493.645 288.864 499.148 293.964 503.236C300.788 508.704 290.141 518.856 272.761 519.064C264.135 519.165 248.575 515.882 243.94 511.094C239.307 506.307 236.131 498.572 232.445 495.115C228.76 491.66 221.132 488.443 218.687 484.111C217.344 481.729 217.575 475.945 217.944 471.017C218.287 466.495 217.952 459.62 220.515 460.005L220.851 462.297C222.016 464.187 224.625 467.256 231.635 467.955C235.136 468.303 245.476 467.912 245.597 460.601Z" fill="#514F8C"/>
<path d="M237.211 467.759C240.499 467.249 243.984 465.912 245.167 462.836L245.22 462.736C245.22 462.736 244.592 466.224 247.933 469.637C251.276 473.049 272.572 497.267 272.572 497.267C272.572 497.267 252.936 477.431 249.175 473.7C243.612 468.184 241.928 467.609 237.193 467.768L237.211 467.759Z" fill="#211E3F"/>
<path d="M240.933 475.252C240.918 475.252 240.902 475.252 240.888 475.251C240.302 475.225 239.848 474.731 239.873 474.145C239.897 473.575 240.366 473.129 240.933 473.129C240.948 473.129 240.962 473.129 240.978 473.131C241.564 473.155 242.018 473.651 241.993 474.236C241.969 474.805 241.498 475.252 240.933 475.252Z" fill="#1F3239"/>
<path d="M246.428 480.553C246.412 480.553 246.397 480.552 246.382 480.552C245.796 480.527 245.341 480.032 245.366 479.447C245.39 478.876 245.861 478.429 246.428 478.429C246.442 478.429 246.457 478.431 246.472 478.431C247.057 478.456 247.512 478.951 247.488 479.537C247.464 480.107 246.993 480.553 246.428 480.553Z" fill="#1F3239"/>
<path d="M251.923 485.853C251.907 485.853 251.891 485.853 251.876 485.853C251.291 485.828 250.836 485.333 250.86 484.748C250.884 484.177 251.355 483.732 251.92 483.732C251.936 483.732 251.951 483.732 251.967 483.732C252.552 483.757 253.006 484.252 252.982 484.837C252.958 485.408 252.488 485.853 251.923 485.853Z" fill="#1F3239"/>
<path d="M257.416 491.155C257.4 491.155 257.385 491.155 257.369 491.155C256.784 491.129 256.329 490.635 256.355 490.048C256.379 489.479 256.848 489.033 257.413 489.033C257.429 489.033 257.444 489.033 257.46 489.033C258.045 489.057 258.5 489.553 258.475 490.139C258.451 490.709 257.98 491.155 257.416 491.155Z" fill="#1F3239"/>
<path d="M262.91 496.456C262.895 496.456 262.879 496.456 262.863 496.455C262.279 496.431 261.824 495.936 261.85 495.349C261.872 494.78 262.343 494.333 262.908 494.333C262.923 494.333 262.939 494.333 262.954 494.335C263.539 494.358 263.995 494.855 263.97 495.44C263.946 496.009 263.475 496.456 262.91 496.456Z" fill="#1F3239"/>
<path d="M240.928 474.617L240.649 474.509C240.472 474.352 240.457 474.081 240.615 473.907C240.813 473.681 245.573 468.423 252.263 468.356H252.272C252.503 468.359 252.692 468.547 252.693 468.779C252.696 469.015 252.507 469.208 252.271 469.211C245.956 469.275 241.297 474.423 241.252 474.475L240.928 474.617Z" fill="#211E3F"/>
<path d="M246.423 479.899L246.144 479.791C245.968 479.633 245.952 479.363 246.109 479.189C246.308 478.964 251.067 473.705 257.759 473.637H257.767C257.999 473.64 258.187 473.828 258.189 474.061C258.192 474.296 258.003 474.489 257.765 474.492C251.461 474.555 246.793 479.704 246.747 479.756L246.423 479.899Z" fill="#211E3F"/>
<path d="M251.916 485.219L251.638 485.111C251.46 484.953 251.446 484.684 251.603 484.508C251.802 484.284 256.56 479.025 263.251 478.957H263.26C263.492 478.961 263.68 479.148 263.682 479.381C263.684 479.616 263.496 479.809 263.259 479.812C256.955 479.875 252.286 485.024 252.24 485.076L251.916 485.219Z" fill="#211E3F"/>
<path d="M257.409 490.521L257.131 490.412C256.953 490.256 256.939 489.987 257.096 489.811C257.295 489.585 262.053 484.325 268.745 484.257H268.752C268.985 484.26 269.172 484.448 269.175 484.681C269.177 484.916 268.988 485.109 268.752 485.112C262.448 485.175 257.779 490.327 257.733 490.379L257.409 490.521Z" fill="#211E3F"/>
<path d="M262.904 495.821L262.625 495.713C262.448 495.556 262.433 495.285 262.59 495.109C262.789 494.885 267.548 489.627 274.24 489.559L274.248 489.56C274.48 489.563 274.668 489.749 274.669 489.983C274.672 490.219 274.484 490.412 274.246 490.413C267.942 490.477 263.274 495.627 263.228 495.677L262.904 495.821Z" fill="#211E3F"/>
<path d="M236.179 405.403C239.399 394.329 244.294 377.384 247.411 366.057C252.384 347.984 255.794 329.187 254.138 320.388C251.91 308.545 240.327 296.359 223.59 285.069C205.311 272.741 181.247 256.636 181.247 256.636L82.3982 257.901C82.682 273.839 80.1643 286.301 85.8587 301.445C90.8806 314.803 99.2867 322.449 125.084 337.683C143.387 348.491 164.811 360.679 169.442 363.715C175.307 367.56 180.842 370.639 182.628 380.652C184.328 390.192 186.2 406.751 195.662 427.337C206.498 450.913 216.156 471.887 216.156 471.887C216.156 471.887 237.251 476.644 250.655 461.125C250.655 461.125 243.732 434.109 236.179 405.403Z" fill="#373657"/>
<path d="M235.837 402.819C228.724 375.905 221.496 349.257 219.277 343.487C214.549 331.236 166.352 294.36 164.855 293.167C164.84 293.147 174.553 287.928 180.272 273.239C179.821 285.236 174.48 290.628 172.741 293.585C180.035 299.609 196.539 312.396 203.937 318.865C213.236 327.005 223.008 336.687 226.123 349.312C228.423 358.681 233.415 388.167 235.837 402.819Z" fill="#514F8C"/>
<path d="M226.49 189.568C240.266 177.695 244.228 174.403 245.58 170.335C246.932 166.269 246.805 162.701 247.454 156.201C248.104 149.7 248.97 143.636 249.381 140.255C249.818 136.649 252.113 135.535 254.744 138.977C257.02 141.955 256.35 146.711 256.636 149.976C256.972 153.852 259.037 153.469 261.206 150.864C263.376 148.259 273.613 135.199 277.308 131.409C281.002 127.621 283.848 128.179 285.057 129.887C285.745 130.859 283.841 133.143 279.366 139.099C274.892 145.053 272.464 147.947 272.888 148.265C273.313 148.584 275.874 145.521 281.2 140.121C286.098 135.156 287.506 133.671 290.106 132.433C293.186 130.965 294.866 134.073 293.31 136.084C291.65 138.231 290.618 139.596 283.78 147.155C279.029 152.405 278.721 153.143 279.104 153.524C279.485 153.907 281.704 151.968 286.914 147.515C292.448 142.785 295.293 141.26 297.222 142.701C297.72 143.073 297.99 144.201 297.556 144.949C296.848 146.168 295.597 147.791 292.021 150.859C288.561 153.827 287.452 154.959 285.704 156.479C283.91 158.039 283.716 158.651 284.137 159.073C284.558 159.495 287.736 157.593 294.214 152.56C296.514 150.773 299.533 153.888 295.254 157.824C292.957 159.937 283.102 169.948 277.557 175.053C271.353 180.767 266.705 182.525 261.736 187.607C257.298 192.144 239.988 210.7 239.988 210.7L226.49 189.568Z" fill="#B86C77"/>
<path d="M259.471 157.005C262.528 163.073 261.934 172.597 258.192 177.879C264.239 174.625 266 163.409 259.471 157.005Z" fill="#AA3B4B"/>
<path d="M160.988 196.276L154.837 141.955C168.149 143.819 173.84 147.199 183.513 160.584C188.912 168.053 201.081 184.313 212.452 199.073L239.704 175.635C239.704 175.635 253.198 185.432 256.636 196.416C256.636 196.416 224.912 229.783 217.776 235.744C211.262 241.185 206.309 244.504 195.526 234.316C184.745 224.128 163.941 200.479 160.988 196.276Z" fill="#EDEDEB"/>
<path d="M246.228 196.504C244.612 194.533 242.869 192.659 241.033 190.889C239.088 189.016 236.955 187.189 234.409 186.196C233.852 185.979 233.54 186.581 234.019 186.941C238.069 189.988 241.7 193.408 244.909 197.341C246.344 199.103 247.671 200.961 248.821 202.921C249.025 203.269 249.213 203.625 249.403 203.98C249.784 203.583 250.157 203.193 250.517 202.819C249.317 200.564 247.847 198.476 246.228 196.504Z" fill="#DADBD8"/>
<path d="M212.453 199.073C206.674 203.845 201.304 212.407 200.91 218.82C200.454 208.813 203.846 201.905 210.302 196.276L212.453 199.073Z" fill="#DADBD8"/>
<path d="M75.6376 157.204C75.6376 157.204 67.086 171.299 72.434 194.293C76.6293 212.333 80.1949 219.171 80.9558 238.001C81.9449 262.463 81.5829 284.417 81.5829 284.417C114.44 295.437 171.737 276.567 181.246 256.636C181.246 256.636 177.832 240.364 171.649 173.339C170.176 157.363 160.74 146.371 154.837 141.955L137.938 139.925L114.27 139.635L100.762 144.835L75.6376 157.204Z" fill="#FAFAF9"/>
<path d="M158.832 68.2773C153.771 59.772 145.252 54.7466 130.678 55.5026C112.89 56.4253 103.657 65.0867 102.385 72.3547L102.398 72.3693C100.613 73.0333 97.8124 74.6787 95.702 78.7213C94.0192 81.9453 92.8072 87.8293 97.3759 104.663C100.317 115.496 103.861 120.224 105.441 123.241C107.019 126.257 110.265 127.105 110.265 127.105L109.949 114.171L109.482 109.013C109.482 109.013 115.821 108.483 115.903 90.7853C115.914 88.3867 116.156 86.4267 116.07 84.812L160.532 87.7827C160.532 87.7827 163.894 76.7827 158.832 68.2773Z" fill="#211E3F"/>
<path d="M98.1216 117.941C103.181 120.556 107.885 115.911 107.885 115.911L108.85 142.583C108.85 142.583 109.37 147.725 117.564 152.251C129.185 158.668 136.534 159.557 141.52 166.411C145.279 154.919 147.162 149.141 139.728 140.425L139.711 133.232C139.711 133.232 145.975 133.493 150.592 132.157C157.647 130.116 160.294 126.363 161.627 119.496C163.504 109.82 162.871 97.3187 159.314 81.1294C158.627 78.004 156.971 75.0987 154.416 73.1693C146.579 67.252 134.918 72.9373 124.991 76.7907C120.88 78.3867 112.746 78.716 110.12 77.4787C113.576 81.3054 114.375 90.808 112.382 100.395C111.693 103.705 110.547 104.369 109.822 104.351C106.946 104.279 105.879 100.728 104.058 98.8173C102.22 96.9213 95.3852 95.208 92.4295 101.476C89.4404 107.857 91.9877 114.769 98.1216 117.941Z" fill="#B86C77"/>
<path d="M139.711 133.232C130.037 132.685 123.182 131.001 119.468 128.14C114.413 124.245 111.204 117.829 111.204 117.829C111.204 117.829 112.645 126.973 117.97 131.217C123.295 135.46 129.604 137.776 139.717 137.776L139.711 133.232Z" fill="#AA3B4B"/>
<path d="M133.802 89.136L126.727 90.0907C126.516 88.0827 127.931 86.2414 129.885 85.9787C131.839 85.7147 133.592 87.1294 133.802 89.136Z" fill="#211E3F"/>
<path d="M128.865 97.2267C128.92 98.832 130.267 100.089 131.872 100.033C133.478 99.9787 134.735 98.632 134.68 97.0267C134.624 95.4213 133.279 94.164 131.673 94.22C130.067 94.2747 128.81 95.62 128.865 97.2267Z" fill="#211E3F"/>
<path d="M150.583 86.488L157.266 89.0001C157.919 87.0907 156.952 84.98 155.107 84.2867C153.26 83.592 151.236 84.5787 150.583 86.488Z" fill="#211E3F"/>
<path d="M156.408 95.348C156.354 96.9547 155.007 98.212 153.402 98.1573C151.796 98.1013 150.539 96.7547 150.594 95.1493C150.65 93.544 151.995 92.2867 153.602 92.3414C155.207 92.3974 156.464 93.7427 156.408 95.348Z" fill="#211E3F"/>
<path d="M140.499 89.9613L142.872 108.483L152.659 104.884C149.187 98.3493 145.134 93.376 140.499 89.9613Z" fill="#AA3B4B"/>
<path d="M135.602 113.445L145.461 115.233C145.027 118.043 142.47 119.923 139.746 119.429C137.025 118.936 135.169 116.256 135.602 113.445Z" fill="#AA3B4B"/>
<path d="M136.835 115.004C136.418 114.972 136.016 115.001 135.623 115.059C135.951 117.215 137.556 119.032 139.746 119.429C140.295 119.528 140.832 119.508 141.351 119.427C141.43 117.168 139.45 115.203 136.835 115.004Z" fill="#F47089"/>
<path d="M145.686 164.36C145.686 164.36 149.496 155.735 149.277 152.475L143.606 147.368L142.873 161.069L145.686 164.36Z" fill="#4A41AA"/>
<path d="M145.686 164.36C144.752 162.484 143.349 161.236 142.884 160.856L143.606 147.368L149.277 152.475C149.284 152.567 149.286 152.664 149.286 152.764C149.284 156.216 145.686 164.36 145.686 164.36Z" fill="#120D31"/>
<path d="M138.247 161.919L128.807 156.389L121.62 161.961L135.962 168.107L138.247 161.919Z" fill="#4A41AA"/>
<path d="M135.658 167.976L121.62 161.961L128.807 156.389L137.699 161.597C136.756 162.671 135.591 165.267 135.59 167.308C135.59 167.505 135.6 167.697 135.623 167.883C135.634 167.913 135.646 167.945 135.658 167.976Z" fill="#120D31"/>
<path d="M140.643 230.785C139.399 201.659 140.511 179.428 139.499 172.393L144.407 171.577C148.406 179.833 161.088 204.308 162.191 224.417C162.902 231.403 159.548 247.559 154.838 248.044C150.127 248.529 140.826 235.056 140.643 230.785Z" fill="#4A41AA"/>
<path d="M154.584 248.057C149.802 248.057 140.823 234.981 140.643 230.785C139.506 204.153 140.338 183.285 139.715 174.529C139.822 174.539 139.93 174.544 140.039 174.544C141.804 174.544 144.044 173.387 144.916 172.623C149.383 181.747 161.131 205.097 162.191 224.417C162.254 225.045 162.286 225.747 162.286 226.504C162.288 234.18 159.124 247.603 154.838 248.044C154.755 248.053 154.67 248.057 154.584 248.057ZM144.411 171.585L144.407 171.577C144.408 171.58 144.41 171.583 144.411 171.585Z" fill="#B764B9"/>
<path d="M139.715 174.529C139.638 173.587 139.584 172.989 139.499 172.393C139.586 172.996 139.658 173.709 139.715 174.529ZM144.916 172.623C144.735 172.253 144.567 171.908 144.411 171.585H144.412C144.566 171.903 144.706 172.191 144.916 172.623Z" fill="#BFC0BE"/>
<path d="M140.039 174.544C139.93 174.544 139.822 174.539 139.715 174.529C139.658 173.709 139.586 172.996 139.499 172.393C140.074 172.521 140.603 172.573 141.087 172.573C143.198 172.573 144.407 171.577 144.407 171.577L144.411 171.585C144.567 171.908 144.735 172.253 144.916 172.623C144.044 173.387 141.804 174.544 140.039 174.544Z" fill="#A14CAC"/>
<path d="M138.074 161.244C140.184 160.704 142.729 160.733 142.729 160.733C142.729 160.733 144.552 162.083 145.686 164.36C145.686 164.36 145.896 168.716 144.406 171.577C144.406 171.577 142.581 173.081 139.498 172.393C139.498 172.393 136.589 170.591 135.622 167.883C135.33 165.516 137.02 161.997 138.074 161.244Z" fill="#4A41AA"/>
<path d="M141.087 172.573C140.603 172.573 140.074 172.521 139.499 172.393C139.499 172.393 136.59 170.591 135.623 167.883C135.601 167.697 135.59 167.505 135.59 167.308C135.591 164.983 137.103 161.939 138.075 161.244C139.978 160.757 142.234 160.733 142.659 160.733C142.705 160.733 142.73 160.733 142.73 160.733C142.73 160.733 144.553 162.083 145.687 164.36C145.687 164.36 145.698 164.568 145.698 164.924C145.698 166.195 145.571 169.343 144.407 171.577C144.407 171.577 143.198 172.573 141.087 172.573Z" fill="#B764B9"/>
<path d="M138.174 161.219C138.016 161.236 137.83 161.616 137.673 161.653C134.116 160.008 133.529 159.412 132.632 159.728C130.93 160.327 127.29 167.785 126.421 170.175C125.529 172.547 125.728 172.525 122.419 170.607C116.015 166.868 110.476 161.793 107.173 157.592C102.551 151.715 100.762 144.835 100.762 144.835C100.762 144.835 103.538 141.277 104.485 139.301C106.314 135.483 106.417 133.751 108.537 133.944L108.63 136.519C109.188 139.717 114.318 142.583 119.059 146.2C123.801 149.836 131.3 153.075 133.119 154.629C134.449 155.755 136.428 158.467 138.174 161.219Z" fill="#332F55"/>
<path d="M154.698 162.959C154.268 164.299 149.471 154.276 147.434 154.616C146.448 154.756 144.396 157.679 142.73 160.733C142.73 160.733 141.54 160.772 141.328 160.777C142.386 157.613 142.854 154.901 142.976 152.816C143.183 149.292 139.728 140.425 139.728 140.425L139.718 136.371C140.262 136.367 141.494 136.309 142.184 136.289C142.735 136.781 143.82 138.897 144.868 140.204C147.28 143.209 152.803 147.575 153.702 151.463C155.144 157.692 154.867 162.46 154.698 162.959Z" fill="#332F55"/>
<path d="M81.558 154.295C68.8668 158.672 58.7408 164.244 55.6923 176.577C52.6434 188.912 49.9018 218.528 48.2808 236.372C46.8908 251.664 48.7398 265.209 53.3023 271.069L82.6362 253.087L90.483 204.383C90.483 204.383 94.684 167.637 81.558 154.295Z" fill="#EDEDEB"/>
<path d="M82.0653 230.024C79.9773 234.108 77.1434 236.024 70.9565 240.155C65.1904 244.003 58.4112 247.847 55.6924 255.157C55.832 248.755 58.7784 245.157 65.8544 239.635C72.9305 234.113 83.4866 227.244 83.4866 227.244L82.0653 230.024Z" fill="#DADBD8"/>
<path d="M82.0649 230.024C79.9769 234.108 77.143 236.024 70.9561 240.155C65.1899 244.003 58.4107 247.847 55.6919 255.157C53.2977 261.593 50.4733 267.081 53.3019 271.069C55.2498 273.816 64.2243 274.372 72.3749 272.575C80.5253 270.777 85.0509 264.92 92.4498 257.772C98.7951 251.643 101.203 249.136 101.203 249.136L82.0649 230.024Z" fill="#EDEDEB"/>
<path d="M93.9477 234.013C90.4665 231.723 89.3305 228.895 84.5509 227.344C79.7712 225.795 77.0952 226.443 72.0629 225.065C67.031 223.689 63.0993 223.267 59.8957 225.095C56.6905 226.923 57.6405 228.78 60.5577 229.871C63.4758 230.96 68.3462 232.173 71.8894 233.78C75.4316 235.387 78.7029 236.04 79.5206 239.937C80.3378 243.835 81.4681 251.977 81.9837 258.684C82.4982 265.389 82.302 270.949 82.9389 271.552C83.5758 272.156 86.4446 271.896 87.4097 267.889C88.3753 263.883 87.8493 250.124 87.8493 250.124C87.8493 250.124 91.0296 259.088 92.8649 265.333C94.6998 271.58 95.9196 276.391 96.3801 277.709C96.84 279.029 101.13 277.051 100.859 272.109C100.588 267.167 96.6988 253.149 96.6988 253.149C96.6988 253.149 101.784 258.84 105.063 262.535C108.342 266.229 112.507 271.323 113.78 272.529C115.054 273.736 117.392 270.645 115.914 266.977C114.437 263.309 107.612 254.989 107.612 254.989C107.612 254.989 114.8 259.939 115.961 260.332C117.122 260.724 120.161 259.577 118.208 255.593C116.903 252.932 114.737 251.509 108.864 247.069C102.992 242.628 102.583 240.367 100.592 238.188C97.9785 235.328 96.4744 235.675 93.9477 234.013Z" fill="#B86C77"/>
<path d="M82.6377 238.663C87.7904 239.775 91.9768 236.695 92.3726 235.391C92.7357 238.704 86.6508 241.952 82.6377 238.663Z" fill="#AA3B4B"/>
<path d="M118.842 258.001C118.526 258.689 117.229 259.16 115.832 258.413C114.431 257.664 110.816 254.981 109.169 253.736C107.521 252.491 101.834 248.044 101.834 248.044L107.613 254.989C107.613 254.989 114.8 259.939 115.961 260.332C116.841 260.629 118.797 260.039 118.842 258.001Z" fill="#AA3B4B"/>
<path d="M324.064 401.551L325.892 569.537H325.898C325.917 570.173 326.341 570.808 327.184 571.294C328.905 572.289 331.698 572.289 333.422 571.294C334.264 570.808 334.688 570.173 334.708 569.537H334.714L336.542 401.548C336.542 400.627 335.933 399.704 334.714 399C332.277 397.593 328.328 397.593 325.89 399C324.672 399.704 324.062 400.628 324.064 401.551ZM218.005 532.788H218.012C218.028 533.368 218.414 533.945 219.182 534.389C220.752 535.296 223.298 535.296 224.868 534.389C225.636 533.945 226.021 533.368 226.038 532.788H226.045L243.924 377.652C243.924 376.811 243.369 375.969 242.258 375.329C240.038 374.048 236.438 374.048 234.218 375.329C233.108 375.971 232.553 376.812 232.553 377.653L218.005 532.788ZM416.534 377.652L434.413 532.788H434.42C434.437 533.368 434.824 533.945 435.59 534.389C437.161 535.296 439.706 535.296 441.274 534.389C442.042 533.945 442.43 533.368 442.446 532.788H442.452L427.904 377.653C427.905 376.812 427.35 375.971 426.24 375.329C424.02 374.048 420.42 374.048 418.2 375.329C417.089 375.969 416.534 376.811 416.534 377.652Z" fill="#4A41AA"/>
<path d="M330.302 572.04C329.173 572.04 328.044 571.792 327.184 571.294C326.341 570.808 325.917 570.173 325.898 569.537H325.892L324.476 439.363L324.554 446.629C326.45 446.675 328.362 446.697 330.273 446.697C332.204 446.697 334.136 446.673 336.05 446.627L336.13 439.357L334.714 569.537H334.708C334.688 570.173 334.264 570.808 333.422 571.294C332.56 571.792 331.43 572.04 330.302 572.04ZM438.433 535.069C437.404 535.069 436.376 534.843 435.59 534.389C434.824 533.945 434.437 533.368 434.42 532.788H434.413L429.024 486.027L424.673 448.277L421.274 418.776C421.277 418.775 421.273 418.777 421.277 418.775L422.052 425.504C422.865 425.057 423.693 424.627 424.49 424.165C427.046 422.691 429.524 421.072 431.829 419.512L442.452 532.788H442.446C442.43 533.368 442.042 533.945 441.274 534.389C440.49 534.843 439.462 535.069 438.433 535.069ZM222.025 535.069C220.996 535.069 219.968 534.843 219.182 534.389C218.414 533.945 218.028 533.368 218.012 532.788H218.005L228.632 419.472C230.913 421.013 233.368 422.616 235.893 424.075C236.717 424.551 237.573 424.996 238.413 425.457L239.177 418.819L239.178 418.82L233.104 471.531L230.564 493.58L230.248 496.323L230.086 497.719L229.724 500.868L226.045 532.788H226.038C226.021 533.368 225.636 533.945 224.868 534.389C224.082 534.843 223.054 535.069 222.025 535.069Z" fill="#4A41AA"/>
<path d="M330.273 446.697C328.362 446.697 326.45 446.675 324.554 446.629L324.476 439.363C326.376 439.409 328.284 439.433 330.186 439.433C332.168 439.433 334.15 439.408 336.13 439.357L336.05 446.627C334.136 446.673 332.204 446.697 330.273 446.697Z" fill="#120D31"/>
<path d="M238.413 425.457C237.573 424.996 236.717 424.551 235.893 424.075C233.368 422.616 230.913 421.013 228.632 419.472L229.248 412.907C231.257 414.236 233.357 415.535 235.551 416.801C236.743 417.489 237.952 418.161 239.177 418.819L238.413 425.457Z" fill="#120D31"/>
<path d="M431.829 419.512L431.205 412.852L431.83 419.512C431.829 419.512 431.829 419.512 431.829 419.512Z" fill="#29444E"/>
<path d="M422.052 425.504L421.277 418.775C422.472 418.133 423.656 417.473 424.821 416.801C427.044 415.517 429.171 414.201 431.205 412.852L431.829 419.512C429.524 421.072 427.047 422.691 424.491 424.165C423.693 424.627 422.865 425.057 422.052 425.504Z" fill="#120D31"/>
<path d="M424.82 303.684C372.553 273.508 287.815 273.508 235.549 303.684C209.416 318.772 196.371 338.547 196.38 358.321C196.38 360.352 196.381 360.297 196.381 360.243C196.381 360.187 196.38 360.132 196.38 362.163C196.371 381.937 209.416 401.712 235.551 416.801C287.816 446.976 372.553 446.977 424.821 416.801C450.953 401.713 463.999 381.939 463.991 362.163C463.989 360.132 463.989 360.187 463.989 360.243C463.989 360.297 463.989 360.352 463.991 358.321C463.999 338.547 450.953 318.773 424.82 303.684Z" fill="#4A41AA"/>
<path d="M330.187 439.433C297.499 439.433 264.809 432.561 239.177 418.819C237.952 418.161 236.743 417.489 235.551 416.801C233.357 415.535 231.257 414.236 229.248 412.907C207.32 398.393 196.372 380.277 196.38 362.163C196.38 360.661 196.38 360.3 196.381 360.236C196.38 360.145 196.38 359.747 196.38 358.321C196.379 357.225 196.419 356.131 196.499 355.035C196.557 374.76 209.603 394.471 235.668 409.52C261.801 424.608 296.052 432.152 330.303 432.152C364.555 432.152 398.805 424.608 424.939 409.52C449.332 395.436 462.323 374.873 463.937 356.116C463.973 356.851 463.991 357.585 463.991 358.321C463.989 359.78 463.989 360.163 463.989 360.241C463.989 360.32 463.989 360.701 463.991 362.163C463.997 378.268 455.345 394.373 438.019 407.947C437.605 408.271 437.191 408.589 436.768 408.909C435.001 410.249 433.144 411.567 431.205 412.852C429.171 414.201 427.044 415.517 424.821 416.801C423.656 417.473 422.472 418.133 421.277 418.775C421.273 418.777 421.277 418.775 421.275 418.776C421.133 418.852 420.992 418.928 420.851 419.003C418.556 420.224 416.199 421.395 413.797 422.507C389.425 433.792 359.809 439.433 330.187 439.433Z" fill="#4A41AA"/>
<path d="M424.938 293.655C372.672 263.479 287.933 263.479 235.666 293.655C209.533 308.743 196.489 328.517 196.497 348.292C196.498 352.353 196.498 350.82 196.497 354.88C196.489 374.657 209.533 394.431 235.668 409.52C287.934 439.695 372.672 439.695 424.938 409.52C451.072 394.432 464.117 371.908 464.109 352.132C464.108 350.103 464.106 350.157 464.106 350.212C464.106 350.268 464.108 350.323 464.109 348.292C464.116 328.517 451.07 308.743 424.938 293.655Z" fill="#4A41AA"/>
<path d="M330.302 432.152C296.052 432.152 261.801 424.608 235.668 409.52C209.533 394.431 196.489 374.657 196.497 354.88C196.498 352.851 196.498 352.219 196.498 351.587C196.498 351.584 196.498 351.581 196.498 351.579C196.498 351.561 196.498 351.545 196.498 351.528C196.498 351.525 196.498 351.523 196.498 351.52C196.498 351.512 196.498 351.505 196.498 351.497C196.498 351.495 196.498 351.493 196.498 351.491C196.498 351.483 196.498 351.475 196.498 351.468C196.498 351.465 196.498 351.463 196.498 351.46C196.498 351.457 196.498 351.456 196.498 351.453C196.498 351.451 196.498 351.448 196.498 351.445C196.498 351.443 196.498 351.44 196.498 351.437C196.498 351.436 196.498 351.433 196.498 351.431C196.498 351.423 196.498 351.415 196.498 351.408C196.498 351.405 196.498 351.403 196.498 351.4C196.498 351.397 196.498 351.395 196.498 351.392C196.498 351.391 196.498 351.388 196.498 351.385C196.498 351.383 196.498 351.38 196.498 351.377C196.498 351.375 196.498 351.372 196.498 351.369C196.498 351.368 196.498 351.365 196.498 351.363C196.498 351.36 196.498 351.357 196.498 351.355C196.498 351.352 196.498 351.349 196.498 351.347C196.498 351.339 196.498 351.332 196.498 351.324C196.498 351.321 196.498 351.319 196.498 351.316C196.498 351.313 196.498 351.311 196.498 351.308C196.498 351.305 196.498 351.303 196.498 351.301C196.498 351.299 196.498 351.296 196.498 351.293C196.498 351.291 196.498 351.288 196.498 351.285C196.498 351.277 196.498 351.269 196.498 351.261C196.498 351.259 196.498 351.256 196.498 351.253C196.498 351.245 196.498 351.237 196.498 351.229C196.498 351.227 196.498 351.224 196.498 351.223C196.498 351.204 196.498 351.184 196.498 351.165C196.498 351.163 196.498 351.16 196.498 351.157C196.498 350.849 196.498 350.483 196.498 349.936C197.202 369.159 210.258 388.26 235.668 402.929C261.804 418.019 296.048 425.561 330.304 425.561C363.413 425.561 396.534 418.508 422.309 404.408C423.193 403.924 424.07 403.431 424.938 402.931C450.346 388.26 463.402 369.159 464.106 349.935C464.106 350.104 464.106 350.181 464.106 350.212C464.106 350.291 464.108 350.673 464.109 352.132C464.117 371.908 451.072 394.432 424.938 409.52C398.805 424.608 364.554 432.152 330.302 432.152ZM228.1 298.397C230.486 296.771 233.009 295.188 235.666 293.655C261.8 278.567 296.05 271.023 330.301 271.023C296.054 271.024 261.797 278.568 235.666 293.655C233.009 295.188 230.488 296.771 228.1 298.397Z" fill="#7266F5"/>
<path d="M235.668 402.929C183.403 372.753 183.402 323.829 235.667 293.655C287.934 263.479 372.672 263.479 424.939 293.655C477.204 323.829 477.204 372.755 424.939 402.931C372.672 433.105 287.935 433.105 235.668 402.929Z" fill="#4A41AA"/>
<path d="M330.304 425.561C296.048 425.561 261.804 418.019 235.668 402.929C261.804 418.019 296.048 425.563 330.304 425.561Z" fill="#F8E8F5"/>
<path d="M330.304 425.561C296.048 425.563 261.804 418.019 235.668 402.929C210.258 388.26 197.202 369.159 196.498 349.936C196.478 349.388 196.468 348.84 196.468 348.292C196.468 328.517 209.534 308.743 235.666 293.655C261.797 278.568 296.054 271.023 330.301 271.023C364.557 271.023 398.802 278.565 424.938 293.655C451.07 308.743 464.137 328.517 464.137 348.292C464.137 368.067 451.07 387.843 424.938 402.931C424.07 403.431 423.193 403.924 422.309 404.408C396.534 418.508 363.413 425.56 330.304 425.561ZM255.585 361.721C249.461 361.721 243.337 363.005 238.665 365.573C229.321 370.709 229.321 379.036 238.665 384.171C243.337 386.739 249.461 388.023 255.585 388.023C261.709 388.023 267.833 386.739 272.505 384.171C281.85 379.036 281.85 370.709 272.505 365.573C267.833 363.005 261.709 361.721 255.585 361.721ZM352.005 290.46C351.436 290.46 350.866 290.608 350.357 290.903L292.992 324.019L395.27 383.073L453.173 349.637C453.662 349.355 453.662 348.651 453.173 348.368L353.654 290.903C353.144 290.608 352.574 290.46 352.005 290.46ZM237.158 305.877C229.221 309.511 229.649 315.172 238.54 318.972C243.684 321.171 250.525 322.293 257.21 322.293C262.868 322.293 268.413 321.488 272.712 319.849C281.566 316.472 282.202 310.769 274.516 306.735L274.136 304.997C273.862 303.444 272.164 301.888 269.03 300.627C265.234 299.097 260.061 298.315 254.95 298.315C250.698 298.315 246.489 298.857 243.158 299.964C239.994 301.015 238.176 302.403 237.706 303.867L237.705 303.872C237.682 303.944 237.662 304.016 237.646 304.088L237.158 305.877Z" fill="#B6AFFF"/>
<path d="M395.271 383.073L292.992 324.019L350.358 290.903C350.867 290.608 351.436 290.46 352.006 290.46C352.575 290.46 353.144 290.608 353.655 290.903L453.174 348.368C453.663 348.651 453.663 349.355 453.174 349.637L395.271 383.073Z" fill="#7266F4"/>
<path d="M297.274 317.043V318.331C297.274 320.22 298.281 321.968 299.922 322.921L392.624 376.44C393.437 376.917 394.362 377.141 395.264 377.141C396.181 377.141 397.1 376.912 397.929 376.436L448.46 347.357C450.084 346.421 451.102 344.656 451.102 342.767V340.983H451.09V341.001C451.09 341.231 450.984 341.443 450.754 341.584L395.264 373.629L297.274 317.043Z" fill="#514F8C"/>
<path d="M297.268 317.039L352.234 285.307C353.212 284.743 354.416 284.743 355.393 285.307L450.75 340.369C451.22 340.639 451.22 341.315 450.75 341.585L395.269 373.623L297.268 317.039Z" fill="#373657"/>
<path d="M395.776 368.955L425.423 351.856L338.735 301.807L308.934 318.816L395.776 368.955Z" fill="#514F8C"/>
<path d="M308.935 318.816L310.067 319.467L338.737 303.108L424.285 352.511L425.417 351.859L338.737 301.805L308.935 318.816Z" fill="#211E3F"/>
<path d="M410.347 321.389L409.8 321.705L395.27 330.093L369.428 315.173L368.89 314.867L383.968 306.163L410.347 321.389Z" fill="#211E3F"/>
<path d="M409.8 321.705L395.269 330.093L369.428 315.173L383.968 306.785L409.8 321.705Z" fill="#514F8C"/>
<path d="M395.269 373.62V377.145C394.36 377.145 393.441 376.913 392.624 376.44L299.921 322.921C298.28 321.975 297.268 320.22 297.268 318.328V317.039L395.269 373.62Z" fill="#211E3F"/>
<path d="M393.776 374.403C392.022 375.079 390.027 374.949 388.367 373.984L296.072 320.697C294.447 319.76 293.334 318.155 293.019 316.308L282.915 256.052C282.859 255.709 282.831 255.365 282.831 255.023C282.831 253.344 283.499 251.739 284.687 250.56L380.6 305.944C381.796 306.64 382.622 307.828 382.855 309.192L393.776 374.403Z" fill="#514F8C"/>
<path d="M395.269 373.623L394.637 373.984C394.36 374.141 394.072 374.281 393.776 374.403L382.855 309.192C382.621 307.828 381.796 306.64 380.6 305.944L284.687 250.56C285.057 250.188 285.493 249.864 285.967 249.585L382.075 305.072C383.272 305.768 384.099 306.956 384.331 308.32L395.269 373.623Z" fill="#373657"/>
<path d="M381.963 307.173L383.451 306.315C383.89 306.9 384.204 307.579 384.331 308.32L395.27 373.623L394.638 373.984C394.36 374.141 394.072 374.281 393.776 374.401L382.855 309.192C382.727 308.445 382.41 307.763 381.963 307.173Z" fill="#211E3F"/>
<path d="M341.793 318.777C341.117 314.744 336.952 309.384 332.492 306.809C328.03 304.235 324.962 305.416 325.638 309.451C326.314 313.485 330.48 318.844 334.942 321.419C339.402 323.993 342.47 322.812 341.793 318.777Z" fill="#4A41AA"/>
<path d="M255.585 388.023C249.461 388.023 243.337 386.739 238.665 384.171C229.321 379.036 229.321 370.709 238.665 365.573C243.337 363.005 249.461 361.721 255.585 361.721C261.709 361.721 267.833 363.005 272.505 365.573C281.851 370.709 281.851 379.036 272.505 384.171C267.833 386.739 261.709 388.023 255.585 388.023Z" fill="#7266F4"/>
<path d="M240.758 328.676C249.141 325.659 262.48 325.725 270.552 328.823C278.625 331.92 278.6 336.879 270.497 339.896C262.393 342.913 249.054 342.847 240.704 339.748C232.353 336.649 232.378 331.691 240.758 328.676Z" fill="#211E3F"/>
<path d="M234.073 318.14L276.973 319.285L273.317 376.164L273.276 376.163C273.027 377.985 271.26 379.744 267.945 381.055C260.881 383.851 249.36 383.555 242.211 380.395C238.857 378.912 237.124 377.065 236.963 375.232L236.921 375.231L234.073 318.14Z" fill="#FAFAF9"/>
<path d="M276.973 319.285L276.048 329.459C275.044 330.111 273.851 330.725 272.415 331.273C263.039 334.849 247.74 334.456 238.243 330.396C237.832 330.221 237.491 330.032 237.119 329.849C235.608 329.093 234.467 328.276 234.467 328.276L234.073 318.14L276.973 319.285Z" fill="#E7E8E5"/>
<path d="M231.323 319.552L231.523 311.883L236.523 312.011C237.199 311.68 237.936 311.363 238.747 311.064C248.441 307.497 263.74 307.889 272.917 311.94C273.683 312.277 274.357 312.633 274.992 312.997L279.849 313.123L279.649 320.793C279.584 323.292 277.2 325.732 272.512 327.52C263.137 331.095 247.837 330.703 238.34 326.643C233.591 324.612 231.257 322.051 231.323 319.552Z" fill="#514F8C"/>
<path d="M238.9 305.163C248.595 301.596 263.894 301.989 273.072 306.04C282.25 310.091 282.088 316.273 272.712 319.849C263.336 323.424 248.038 323.031 238.54 318.972C229.043 314.912 229.204 308.731 238.9 305.163Z" fill="#373657"/>
<path d="M236.012 310.153L235.995 310.152L237.707 303.867L249.979 304.183C253.977 303.792 258.252 303.901 262.183 304.495L274.093 304.801L275.483 311.165L275.463 311.164C276.173 313.483 274.276 315.843 269.749 317.493C262.023 320.311 249.412 319.987 241.58 316.771C236.991 314.887 235.155 312.431 236.012 310.153Z" fill="#514F8C"/>
<path d="M243.158 299.964C250.492 297.527 262.076 297.825 269.03 300.627C275.986 303.429 275.876 307.681 268.782 310.123C261.692 312.565 250.108 312.268 242.91 309.46C235.713 306.651 235.824 302.4 243.158 299.964Z" fill="#373657"/>
<path d="M240.105 304.644C240.115 304.743 240.295 305.085 240.887 305.563C241.44 306.001 242.369 306.563 243.827 307.136C247.003 308.367 251.423 309.155 255.949 309.271C260.475 309.387 264.855 308.837 267.965 307.768C269.425 307.268 270.344 306.743 270.884 306.332C271.487 305.873 271.66 305.528 271.661 305.44C271.667 305.265 271.067 304.139 268.091 302.939C265.04 301.712 260.695 300.939 256.169 300.823C251.643 300.707 247.188 301.253 243.952 302.332C240.907 303.34 240.123 304.419 240.105 304.644Z" fill="#211E3F"/>
<path d="M240.887 305.563C241.44 306.001 242.369 306.563 243.827 307.136C247.003 308.367 251.423 309.155 255.949 309.271C260.475 309.387 264.855 308.837 267.965 307.768C269.425 307.268 270.344 306.743 270.884 306.332C270.367 305.893 269.476 305.321 268.044 304.748C264.993 303.521 260.648 302.748 256.121 302.632C251.596 302.516 247.14 303.064 243.904 304.141C242.419 304.64 241.463 305.14 240.887 305.563Z" fill="#514F8C"/>
<path d="M248.5 307.679C247.867 307.679 246.979 307.407 246.218 306.947C245.175 306.316 244.766 305.576 245.303 305.296C245.446 305.22 245.64 305.185 245.87 305.185C246.503 305.185 247.396 305.455 248.162 305.912C249.204 306.535 249.615 307.273 249.078 307.563C248.932 307.641 248.734 307.679 248.5 307.679Z" fill="#0F191D"/>
<path d="M275.277 352.799C275.268 354.687 273.353 356.565 269.537 357.987C261.902 360.829 249.336 360.767 241.469 357.848C237.542 356.389 235.581 354.496 235.584 352.611L234.457 334.181C234.448 336.184 236.528 338.199 240.704 339.748C249.054 342.847 262.393 342.913 270.497 339.896C274.548 338.387 276.58 336.393 276.59 334.389L275.277 352.799Z" fill="#373657"/>
<path d="M262.174 353.824C262.887 352.883 263.283 351.724 263.86 350.704C265.012 348.673 266.648 347.297 268.736 346.485C269.016 346.377 269.36 346.493 269.491 346.761C270.536 348.899 269.874 351.883 267.678 354.04C265.504 356.175 262.523 356.825 260.383 355.812C260.262 355.755 260.228 355.52 260.328 355.463C261.02 355.067 261.639 354.531 262.174 353.824Z" fill="#211E3F"/>
<path d="M267.576 345.896C266.448 346.316 265.393 346.983 264.505 347.749C263.555 348.569 262.817 349.619 262.276 350.747C261.452 352.461 260.668 353.52 259.469 354.399C259.208 354.589 258.812 354.536 258.635 354.267C257.219 352.116 257.8 348.835 260.167 346.509C262.409 344.307 265.508 343.687 267.659 344.839C268.091 345.071 268.036 345.724 267.576 345.896Z" fill="#211E3F"/>
<path d="M530.048 443.335H525.217V421.176C525.217 415.88 528.809 409.657 533.396 407.009L559.311 392.049C561.923 390.54 564.591 390.368 566.629 391.571C568.668 392.776 569.803 395.196 569.743 398.212L569.287 420.725L564.456 420.629L564.913 398.115C564.939 396.928 564.653 396.015 564.172 395.729C563.692 395.444 562.755 395.639 561.725 396.231L535.811 411.191C532.687 412.996 530.048 417.568 530.048 421.176V443.335Z" fill="#514F8C"/>
<path d="M611.24 497.755L606.059 402.3C605.935 400.047 604.249 397.304 602.295 396.176L599.315 394.456C598.301 393.871 597.369 393.844 596.685 394.259L596.684 394.245L496.935 451.849L510.664 557.604L610.355 500.046V500.045C610.959 499.679 611.303 498.885 611.24 497.755Z" fill="#514F8C"/>
<path d="M493.235 548.627L508.289 557.317C510.244 558.445 511.727 557.533 511.603 555.28L506.421 459.827C506.296 457.572 504.611 454.831 502.657 453.703L499.676 451.981C497.721 450.853 496.048 451.765 495.936 454.02L489.896 542.501C489.785 544.756 491.28 547.497 493.235 548.627Z" fill="#211E3F"/>
<path d="M545.732 528.585C545.017 528.585 544.416 528.027 544.373 527.303L541.731 482.579C541.685 481.828 542.261 481.184 543.011 481.139C543.721 481.059 544.405 481.668 544.451 482.419L547.092 527.143C547.137 527.893 546.563 528.537 545.812 528.582L545.732 528.585Z" fill="#4A41AA"/>
<path d="M583.936 506.635C583.22 506.635 582.617 506.077 582.576 505.353L579.937 460.628C579.891 459.879 580.467 459.235 581.217 459.189C581.951 459.149 582.609 459.717 582.656 460.468L585.295 505.193C585.34 505.944 584.765 506.587 584.015 506.633L583.936 506.635Z" fill="#4A41AA"/>
<path d="M519.312 503.882C514.648 506.573 508.784 503.401 508.484 498.025L506.432 459.813C506.296 457.579 504.607 454.828 502.645 453.711L499.675 451.995C498.749 451.449 497.904 451.368 497.25 451.667L596.692 394.244V394.271C597.373 393.835 598.299 393.861 599.308 394.461L602.304 396.177C604.238 397.295 605.928 400.045 606.063 402.307L608.088 440.023C608.508 447.539 604.662 454.649 598.142 458.411L519.312 503.882Z" fill="#373657"/>
<path d="M554.22 479.391L568.674 471.051L569.288 479.052L554.806 487.415L554.22 479.391Z" fill="#4A41AA"/>
<path d="M168.206 463.716V543.408C168.206 547.27 165.474 549.503 162.132 551.469L153.75 556.315C151.436 557.655 150.146 558.104 147.204 557.601C145.916 557.392 143.758 556.341 142.73 555.768L142.556 555.681L142.104 555.42L56.4468 505.965C50.1879 502.351 46.3322 495.674 46.3322 488.445L46.3291 415.881C46.3291 414.228 47.4952 412.211 48.94 411.375L63.2431 403.127C64.6698 402.292 67.002 402.292 68.428 403.127L165.595 459.227C166.326 459.628 166.971 460.359 167.44 461.159C167.91 461.976 168.206 462.899 168.206 463.716Z" fill="#514F8C"/>
<path d="M168.205 463.716V543.408C168.205 547.27 165.473 549.503 162.132 551.469L153.749 556.315C151.436 557.655 150.145 558.104 147.204 557.601C145.916 557.392 143.757 556.341 142.729 555.768V555.733C146.071 557.299 148.699 555.558 148.699 551.609V476.524C148.699 475.272 148.264 473.879 147.551 472.644L167.44 461.159C167.91 461.976 168.205 462.899 168.205 463.716Z" fill="#211E3F"/>
<path d="M148.703 476.524C148.703 474.027 146.934 470.961 144.771 469.713L52.934 416.691C49.3032 414.595 46.3335 416.309 46.3335 420.5L46.3262 488.439C46.3262 495.665 50.1819 502.346 56.4408 505.96L142.104 555.42C145.734 557.516 148.703 555.8 148.703 551.61V476.524Z" fill="#373657"/>
<path d="M58.6062 405.8L155.944 462.556C158.731 464.181 160.463 467.193 160.463 470.419V552.435L158.979 553.292V470.419C158.979 467.719 157.529 465.197 155.196 463.836L57.126 406.653L58.6062 405.8Z" fill="#4A41AA"/>
<path d="M160.445 469.871C160.444 469.852 160.442 469.835 160.442 469.816C160.444 469.835 160.444 469.852 160.445 469.871ZM160.437 469.755C160.437 469.748 160.437 469.74 160.436 469.733C160.437 469.74 160.437 469.747 160.437 469.755Z" fill="#111D23"/>
<path d="M158.979 553.292V470.419C158.979 469.291 158.727 468.193 158.262 467.2C158.26 467.197 158.259 467.195 158.258 467.193C158.255 467.185 158.252 467.179 158.248 467.172C158.247 467.168 158.244 467.163 158.242 467.157C158.24 467.153 158.238 467.149 158.236 467.145C158.232 467.137 158.228 467.131 158.224 467.123C158.224 467.121 158.223 467.12 158.223 467.119C158.143 466.952 158.058 466.789 157.966 466.629L159.248 465.887C159.919 467.053 160.332 468.365 160.436 469.733C160.438 469.74 160.438 469.748 160.438 469.755C160.439 469.775 160.442 469.796 160.443 469.816C160.443 469.835 160.444 469.852 160.446 469.871C160.447 469.889 160.448 469.909 160.45 469.929C160.45 469.947 160.451 469.963 160.452 469.98C160.454 470.013 160.455 470.047 160.456 470.079C160.459 470.167 160.462 470.253 160.462 470.34C160.463 470.367 160.463 470.392 160.463 470.419V552.435L158.979 553.292Z" fill="#120D31"/>
<path d="M157.966 466.629C157.311 465.489 156.364 464.519 155.196 463.836C156.364 464.517 157.311 465.489 157.966 466.629Z" fill="#1D2F36"/>
<path d="M157.966 466.629C157.311 465.489 156.364 464.517 155.196 463.836L127.097 447.452V445.736L155.944 462.556C156.316 462.772 156.67 463.015 157.002 463.277C157.915 464.001 158.675 464.891 159.248 465.887L157.966 466.629Z" fill="#120D31"/>
<path d="M119.388 442.957L93.1816 427.676V425.96L119.388 441.241V442.957Z" fill="#120D31"/>
<path d="M85.2464 423.049L57.126 406.653L58.6062 405.8L85.2464 421.333V423.049Z" fill="#120D31"/>
<path d="M93.1809 415.984V428.325L88.3555 431.112V414.725C88.3555 413.877 88.9429 413.541 89.6763 413.961L93.1809 415.984Z" fill="#4A41AA"/>
<path d="M88.3555 431.112V414.725C88.3555 414.127 88.6481 413.783 89.0784 413.78C89.08 413.78 89.0815 413.78 89.0831 413.78C89.0847 413.78 89.0861 413.78 89.0872 413.78C89.2643 413.781 89.4643 413.84 89.6763 413.961L93.1809 415.984V425.96V427.676V428.325L88.3555 431.112Z" fill="#743583"/>
<path d="M127.096 428.179V448.156L122.49 450.823L119.388 449.027V432.64C119.388 431.8 118.791 430.769 118.066 430.348L94.5581 416.78L89.6762 413.961C88.9429 413.541 88.3554 413.877 88.3554 414.725V431.112L85.2461 429.317V409.347L85.268 409.087C85.3674 408.3 85.918 407.429 86.5748 407.055L88.5382 405.916C89.2637 405.495 90.4481 405.495 91.1814 405.916L125.774 425.885C126.508 426.315 127.096 427.339 127.096 428.179Z" fill="#4A41AA"/>
<path d="M122.49 450.823L119.388 449.027V432.64C119.388 431.8 118.791 430.769 118.066 430.348L94.5581 416.78L93.1809 415.984L89.6762 413.961C89.4642 413.84 89.2642 413.781 89.0872 413.78C89.0861 413.78 89.0846 413.78 89.083 413.78C89.0814 413.78 89.08 413.78 89.0784 413.78C88.6481 413.783 88.3554 414.127 88.3554 414.725V431.112L85.2461 429.317V409.347L85.268 409.087C85.3456 408.649 85.6169 408.403 85.9841 408.403C86.1622 408.403 86.3628 408.46 86.5748 408.583L121.167 428.553C121.893 428.98 122.49 430.004 122.49 430.845V450.823Z" fill="#120D31"/>
<path d="M446.882 100.053L446.313 78.7333C446.313 78.7333 483.36 72.9507 475.828 35.6094C471.532 14.3094 448.57 -2.55333 392.264 0.313333C328.258 3.572 332.776 45.4973 341.222 58.8493C354.864 80.4107 389.376 84.3907 430.165 81.568L446.882 100.053Z" fill="#4A41AA"/>
<path d="M437.829 26.952H373.313C372.635 26.952 372.084 26.4027 372.084 25.7227C372.084 25.0441 372.635 24.4934 373.313 24.4934H437.829C438.507 24.4934 439.057 25.0441 439.057 25.7227C439.057 26.4027 438.507 26.952 437.829 26.952Z" fill="white"/>
<path d="M445.508 42.3547H365.634C364.914 42.3547 364.331 41.7707 364.331 41.0507C364.331 40.3307 364.914 39.7467 365.634 39.7467H445.508C446.228 39.7467 446.812 40.3307 446.812 41.0507C446.812 41.7707 446.228 42.3547 445.508 42.3547Z" fill="white"/>
<path d="M437.829 57.608H373.313C372.635 57.608 372.084 57.0573 372.084 56.3787C372.084 55.6987 372.635 55.1493 373.313 55.1493H437.829C438.507 55.1493 439.057 55.6987 439.057 56.3787C439.057 57.0573 438.507 57.608 437.829 57.608Z" fill="white"/>
<path d="M201.455 113.261L220.597 95.2747C220.597 95.2747 237.64 98.692 263.569 97.1573C301.929 94.888 323.552 78.1894 317.839 55.4454C311.097 28.604 285.691 18.6414 239.971 20.4267C214.251 21.4307 196.117 29.652 187.573 41.048C177.113 54.996 178.012 76.712 202.975 89.7427L201.455 113.261Z" fill="#7266F4"/>
<path d="M280.773 43.852H220.26C219.581 43.852 219.03 43.3027 219.03 42.6227C219.03 41.944 219.581 41.3933 220.26 41.3933H280.773C281.452 41.3933 282.002 41.944 282.002 42.6227C282.002 43.3027 281.452 43.852 280.773 43.852Z" fill="white"/>
<path d="M288.453 59.2547H212.581C211.86 59.2547 211.277 58.6707 211.277 57.9507C211.277 57.2307 211.86 56.6467 212.581 56.6467H288.453C289.173 56.6467 289.756 57.2307 289.756 57.9507C289.756 58.6707 289.173 59.2547 288.453 59.2547Z" fill="white"/>
<path d="M280.773 74.5067H220.26C219.581 74.5067 219.03 73.9574 219.03 73.2774C219.03 72.5987 219.581 72.0481 220.26 72.0481H280.773C281.452 72.0481 282.002 72.5987 282.002 73.2774C282.002 73.9574 281.452 74.5067 280.773 74.5067Z" fill="white"/>
</g>
<defs>
<clipPath id="clip0_60_1860">
<rect width="653.28" height="625.227" fill="white"/>
</clipPath>
</defs>
</svg>
