<svg width="17" height="24" viewBox="0 0 17 24" fill="none" xmlns="http://www.w3.org/2000/svg">
<path d="M4.50281 21.2977C4.50328 21.5925 4.59047 21.8813 4.75406 22.1269L5.55516 23.3311C5.69201 23.537 5.87762 23.7058 6.09549 23.8226C6.31335 23.9394 6.55671 24.0005 6.80391 24.0005H9.69656C9.94376 24.0005 10.1871 23.9394 10.405 23.8226C10.6228 23.7058 10.8085 23.537 10.9453 23.3311L11.7464 22.1269C11.9099 21.8813 11.9973 21.5928 11.9977 21.2977L11.9995 19.5H4.50047L4.50281 21.2977ZM0 8.25004C0 10.3299 0.771094 12.2274 2.04188 13.6772C2.81625 14.5608 4.0275 16.4068 4.48922 17.9639C4.49109 17.9761 4.4925 17.9883 4.49437 18.0005H12.0056C12.0075 17.9883 12.0089 17.9766 12.0108 17.9639C12.4725 16.4068 13.6838 14.5608 14.4581 13.6772C15.7289 12.2274 16.5 10.3299 16.5 8.25004C16.5 3.68488 12.7927 -0.0140225 8.22422 3.99646e-05C3.4425 0.0145712 0 3.88926 0 8.25004ZM8.25 4.50004C6.18234 4.50004 4.5 6.18238 4.5 8.25004C4.5 8.66442 4.16438 9.00004 3.75 9.00004C3.33562 9.00004 3 8.66442 3 8.25004C3 5.35504 5.355 3.00004 8.25 3.00004C8.66438 3.00004 9 3.33567 9 3.75004C9 4.16442 8.66438 4.50004 8.25 4.50004Z" fill="#B6AFFF"/>
</svg>
