<svg width="19" height="24" viewBox="0 0 19 24" fill="none" xmlns="http://www.w3.org/2000/svg">
<path fill-rule="evenodd" clip-rule="evenodd" d="M11.3866 13.5L15.8866 22.5H14.3866L11.3866 16.5V24H9.88661V15L6.88661 22.5H5.38661L8.38661 15L11.3866 13.5ZM9.88661 0H8.38661V1.5H9.88661V0ZM6.88661 4.5H5.38661V6H6.88661V4.5ZM2.38661 1.5H0.886609V3H2.38661V1.5ZM0.331609 13.5C0.175889 13.6094 0.0655379 13.772 0.0213341 13.9571C-0.0228697 14.1422 0.00212413 14.337 0.0916092 14.505L0.916609 15.885C1.11161 16.23 1.53161 16.35 1.87661 16.185L3.96161 15.195L2.22161 12.195L0.316609 13.485L0.331609 13.5ZM12.1666 5.415L3.46661 11.34L5.31161 14.55L14.8066 10.005L12.1516 5.415H12.1666ZM18.4966 7.335L16.2916 3.555C16.2394 3.46529 16.1694 3.38716 16.086 3.32536C16.0025 3.26357 15.9074 3.21939 15.8064 3.19554C15.7053 3.17168 15.6005 3.16864 15.4983 3.1866C15.396 3.20456 15.2985 3.24314 15.2116 3.3L13.4116 4.545L16.1716 9.345L18.1666 8.385C18.5716 8.19 18.7066 7.725 18.4966 7.335Z" fill="white"/>
</svg>
