<svg width="20" height="20" viewBox="0 0 20 20" fill="none" xmlns="http://www.w3.org/2000/svg">
<path d="M10 0C4.47731 0 0 4.47731 0 10C0 14.7219 3.27385 18.6769 7.675 19.7254C7.44731 19.6712 7.22154 19.6104 7 19.5412L7 17.25C7 17.25 6.625 17.375 6.125 17.375C4.72615 17.375 4.145 16.1269 4 15.5C3.91192 15.1181 3.68192 14.7562 3.435 14.535C3.14 14.2719 3.00192 14.2712 3 14.1812C2.99615 13.9923 3.25308 14 3.375 14C4 14 4.47385 14.665 4.69385 15.0088C5.23885 15.8577 5.82385 16 6.125 16C6.5 16 6.82385 15.9438 7.04692 15.8362C7.15 15.11 7.47308 14.4631 8 14C5.655 13.5312 4 12.1862 4 10C4 8.87385 4.45192 7.83885 5.205 7.00308C5.12808 6.785 5 6.34385 5 5.625C5 5.15 5.03308 4.56692 5.25 4C5.25 4 6.67615 4.01 8.02115 5.28385C8.64192 5.10308 9.30615 5 10 5C10.6938 5 11.3581 5.10308 11.9788 5.28385C13.3238 4.01 14.75 4 14.75 4C14.9681 4.56692 15 5.15 15 5.625C15 6.4 14.8969 6.85192 14.8338 7.04692C15.5638 7.875 16 8.89385 16 10C16 12.1862 14.345 13.5312 12 14C12.6262 14.55 13 15.3512 13 16.25V19.5412C12.7785 19.6108 12.5531 19.6712 12.325 19.7254C16.7262 18.6769 20 14.7219 20 10C20 4.47731 15.5227 0 10 0ZM10.6973 19.9731C10.4669 19.9892 10.2346 20 10 20C10.2346 20 10.4665 19.9888 10.6973 19.9731ZM10 20C9.76538 20 9.53308 19.9892 9.30269 19.9731C9.53346 19.9888 9.76538 20 10 20ZM9.14923 19.9615C8.68115 19.9219 8.22192 19.8504 7.77462 19.7485C8.22231 19.85 8.68115 19.9219 9.14923 19.9615Z" fill="white"/>
</svg>
