<svg width="139" height="27" viewBox="0 0 139 27" fill="none" xmlns="http://www.w3.org/2000/svg">
<path d="M13.4369 25.2417V4.46001H18.1057V25.2417H13.4369ZM0 25.2417V4.46001H4.66877V25.2417H0ZM3.84319 16.8436V12.7442H14.2625V16.8436H3.84319Z" fill="white"/>
<path d="M51.4323 25.0614C49.8571 25.0614 48.5855 24.8716 47.6176 24.492C46.6497 24.0935 45.938 23.4387 45.4825 22.5277C45.046 21.5978 44.8277 20.3452 44.8277 18.77V5.04834H49.0694V18.9408C49.0694 19.6809 49.2592 20.2503 49.6388 20.6489C50.0374 21.0284 50.5972 21.2182 51.3184 21.2182H53.6243V25.0614H51.4323ZM42.4648 12.5924V9.26162H53.6243V12.5924H42.4648Z" fill="white"/>
<path d="M61.0714 24.8621V7.582H65.7402V24.8621H61.0714ZM55.2354 8.15136V4.08043H71.6046V8.15136H55.2354Z" fill="white"/>
<path d="M82.6518 24.8621V20.2503H81.8831V15.2399C81.8831 14.4428 81.6933 13.845 81.3138 13.4464C80.9342 13.0479 80.3269 12.8486 79.4918 12.8486C79.0743 12.8486 78.5239 12.8581 77.8407 12.8771C77.1574 12.896 76.4552 12.9245 75.734 12.9625C75.0128 13.0004 74.3581 13.0384 73.7697 13.0763V9.23315C74.2062 9.19519 74.7187 9.15724 75.307 9.11928C75.8953 9.08132 76.5027 9.05285 77.129 9.03387C77.7553 9.0149 78.3436 9.00541 78.894 9.00541C80.4882 9.00541 81.8262 9.23315 82.908 9.68864C84.0087 10.1441 84.8438 10.8369 85.4132 11.7668C85.9825 12.6778 86.2672 13.8545 86.2672 15.2969V24.8621H82.6518ZM77.6699 25.2607C76.5501 25.2607 75.5632 25.0614 74.7092 24.6629C73.8741 24.2643 73.2193 23.6949 72.7449 22.9548C72.2704 22.1956 72.0332 21.2941 72.0332 20.2503C72.0332 19.1116 72.3273 18.1816 72.9157 17.4604C73.504 16.7203 74.3296 16.1794 75.3924 15.8377C76.4552 15.4772 77.6793 15.2969 79.0648 15.2969H82.3956V17.8305H79.0363C78.2392 17.8305 77.6224 18.0298 77.1859 18.4283C76.7684 18.8079 76.5596 19.3298 76.5596 19.9941C76.5596 20.6204 76.7684 21.1328 77.1859 21.5314C77.6224 21.9109 78.2392 22.1007 79.0363 22.1007C79.5487 22.1007 80.0042 22.0153 80.4028 21.8445C80.8203 21.6547 81.1619 21.3416 81.4276 20.9051C81.6933 20.4686 81.8452 19.8612 81.8831 19.0831L82.9649 20.2218C82.87 21.3036 82.6043 22.2146 82.1678 22.9548C81.7503 23.6949 81.1619 24.2643 80.4028 24.6629C79.6626 25.0614 78.7516 25.2607 77.6699 25.2607Z" fill="white"/>
<path d="M101.12 24.8621L96.1955 17.5743H94.0034L100.352 9.26162H105.134L99.1561 17.0049L99.2131 14.7844L106.245 24.8621H101.12ZM90.1318 24.8621V4.08043H94.6867V24.8621H90.1318Z" fill="white"/>
<path d="M114.875 25.403C113.547 25.403 112.37 25.1753 111.345 24.7198C110.339 24.2643 109.495 23.657 108.811 22.8978C108.147 22.1197 107.635 21.2562 107.274 20.3072C106.933 19.3393 106.762 18.3524 106.762 17.3466V16.7772C106.762 15.7334 106.933 14.737 107.274 13.788C107.635 12.8201 108.147 11.9566 108.811 11.1974C109.476 10.4383 110.301 9.84047 111.288 9.40396C112.294 8.94847 113.433 8.72073 114.704 8.72073C116.375 8.72073 117.779 9.1003 118.918 9.85945C120.075 10.5996 120.958 11.577 121.565 12.7917C122.173 13.9873 122.476 15.2969 122.476 16.7203V18.2575H108.669V15.6669H119.715L118.234 16.8626C118.234 15.9326 118.102 15.1355 117.836 14.4713C117.57 13.807 117.172 13.3041 116.64 12.9625C116.128 12.6019 115.483 12.4216 114.704 12.4216C113.907 12.4216 113.234 12.6019 112.683 12.9625C112.133 13.3231 111.715 13.8545 111.431 14.5567C111.146 15.2399 111.004 16.0845 111.004 17.0903C111.004 18.0203 111.136 18.8364 111.402 19.5386C111.668 20.2218 112.085 20.7532 112.655 21.1328C113.224 21.5124 113.964 21.7022 114.875 21.7022C115.71 21.7022 116.393 21.5409 116.925 21.2182C117.456 20.8956 117.817 20.497 118.007 20.0226H122.191C121.964 21.0664 121.518 21.9963 120.853 22.8124C120.189 23.6285 119.354 24.2643 118.348 24.7198C117.342 25.1753 116.185 25.403 114.875 25.403Z" fill="white"/>
<path d="M131.416 25.3461C129.195 25.3461 127.459 24.8906 126.206 23.9796C124.954 23.0686 124.289 21.7876 124.213 20.1364H128.256C128.332 20.6299 128.626 21.0759 129.138 21.4744C129.67 21.854 130.457 22.0438 131.501 22.0438C132.298 22.0438 132.953 21.9109 133.466 21.6452C133.997 21.3606 134.263 20.962 134.263 20.4496C134.263 19.9941 134.063 19.6335 133.665 19.3678C133.266 19.0831 132.555 18.8838 131.53 18.77L130.306 18.6561C128.427 18.4663 127.013 17.9444 126.064 17.0903C125.134 16.2363 124.669 15.145 124.669 13.8165C124.669 12.7157 124.944 11.7953 125.494 11.0551C126.045 10.3149 126.804 9.75507 127.772 9.37549C128.759 8.99592 129.879 8.80613 131.131 8.80613C133.143 8.80613 134.766 9.25213 135.999 10.1441C137.233 11.0172 137.878 12.2887 137.935 13.9589H133.893C133.817 13.4464 133.551 13.0194 133.095 12.6778C132.64 12.3172 131.966 12.1369 131.074 12.1369C130.372 12.1369 129.812 12.2697 129.395 12.5354C128.977 12.8012 128.768 13.1617 128.768 13.6172C128.768 14.0537 128.949 14.3859 129.309 14.6136C129.67 14.8414 130.258 15.0027 131.074 15.0976L132.298 15.2114C134.215 15.4202 135.705 15.9516 136.768 16.8057C137.831 17.6597 138.362 18.8079 138.362 20.2503C138.362 21.2941 138.077 22.2051 137.508 22.9832C136.939 23.7424 136.132 24.3307 135.088 24.7483C134.044 25.1468 132.82 25.3461 131.416 25.3461Z" fill="white"/>
<path d="M35.9851 11.2425C35.9346 11.2164 35.891 11.1896 35.8397 11.1628C35.9162 11.3474 35.9407 11.5052 35.9384 11.6453C35.9652 11.5312 35.9836 11.414 35.9859 11.2915C35.9874 11.4431 35.969 11.5863 35.9338 11.7188C35.9361 11.6951 35.9384 11.6706 35.9384 11.6453C35.8964 11.8215 35.8267 11.9854 35.7334 12.1347C35.7494 12.1194 35.764 12.1033 35.7785 12.0865C35.2276 13.0094 33.7248 13.2108 32.9833 12.2581C31.7935 10.7278 33.0078 9.07875 33.1777 7.45884C33.3904 5.4284 32.1187 3.45694 30.5409 2.27744C31.4094 3.68442 30.2647 5.54482 29.3495 6.5857C28.4619 7.59441 27.3815 8.43691 26.402 9.35294C25.3492 10.3371 24.3368 11.3742 23.4714 12.5292C21.7406 14.8407 20.6801 17.7489 21.459 20.6333C22.2372 23.5162 24.7317 25.3513 27.5483 26.0001C26.1273 25.385 24.7975 23.8226 24.7944 22.2234C24.7906 20.4801 25.894 18.9996 27.2675 18.0269C27.1022 18.6511 27.0127 19.2217 27.4213 19.7801C27.8016 20.2994 28.4673 20.5514 29.0955 20.4143C30.5638 20.0926 30.6319 18.4765 29.7612 17.5344C28.9003 16.6023 28.0671 15.5484 28.3953 14.1966C28.5598 13.5187 28.9753 12.8838 29.5025 12.4304C29.0978 13.4958 30.2486 14.5458 31.0061 15.069C32.3214 15.9766 33.7638 16.6628 34.9735 17.7267C36.2453 18.8449 37.1849 20.3568 36.9951 22.1108C36.7893 24.0118 35.2804 25.3337 33.5878 26.0008C37.1642 25.2104 40.86 22.4317 40.9358 18.4612C40.9985 15.1946 38.7596 12.6808 35.9866 11.2417L35.9851 11.2425Z" fill="#B6AFFF"/>
</svg>
