<svg width="148" height="36" viewBox="0 0 148 36" fill="none" xmlns="http://www.w3.org/2000/svg">
<rect width="43.9517" height="35.8189" rx="4" fill="#24235A"/>
<path d="M20.1497 8.30583H24.3545V26.4748H20.1497V8.30583ZM11.8957 26.4748H7.69092V8.30583H11.8957V26.4748ZM20.4611 19.0255H11.5843V15.4696H20.4611V19.0255Z" fill="white"/>
<path d="M34.078 26.6825C32.4341 26.6825 31.1536 26.2672 30.2365 25.4366C29.3194 24.5887 28.8609 23.3342 28.8609 21.673V9.42193H32.91V21.6211C32.91 22.2094 33.0657 22.668 33.3772 22.9968C33.6886 23.3082 34.1126 23.464 34.649 23.464C35.2892 23.464 35.8343 23.2909 36.2842 22.9449L37.3743 25.8C36.959 26.0942 36.4572 26.3191 35.8689 26.4748C35.2979 26.6133 34.7009 26.6825 34.078 26.6825ZM26.7065 15.9368V12.8221H36.388V15.9368H26.7065Z" fill="white"/>
<path d="M65.4076 5.89904H68.8753V20.883H65.4076V5.89904ZM58.6005 20.883H55.1328V5.89904H58.6005V20.883ZM65.6644 14.7396H58.3437V11.807H65.6644V14.7396Z" fill="white"/>
<path d="M77.6648 21.0543C76.4376 21.0543 75.3459 20.7974 74.3898 20.2837C73.4479 19.7699 72.6987 19.0707 72.1422 18.1859C71.5999 17.2869 71.3287 16.2665 71.3287 15.1249C71.3287 13.969 71.5999 12.9487 72.1422 12.0639C72.6987 11.1648 73.4479 10.4656 74.3898 9.96613C75.3459 9.45239 76.4376 9.19552 77.6648 9.19552C78.8778 9.19552 79.9624 9.45239 80.9185 9.96613C81.8746 10.4656 82.6238 11.1577 83.1661 12.0425C83.7084 12.9273 83.9795 13.9547 83.9795 15.1249C83.9795 16.2665 83.7084 17.2869 83.1661 18.1859C82.6238 19.0707 81.8746 19.7699 80.9185 20.2837C79.9624 20.7974 78.8778 21.0543 77.6648 21.0543ZM77.6648 18.3144C78.2214 18.3144 78.7209 18.1859 79.1632 17.9291C79.6056 17.6722 79.9553 17.3083 80.2121 16.8374C80.469 16.3522 80.5974 15.7813 80.5974 15.1249C80.5974 14.4542 80.469 13.8834 80.2121 13.4124C79.9553 12.9415 79.6056 12.5776 79.1632 12.3208C78.7209 12.0639 78.2214 11.9355 77.6648 11.9355C77.1083 11.9355 76.6088 12.0639 76.1664 12.3208C75.7241 12.5776 75.3673 12.9415 75.0962 13.4124C74.8393 13.8834 74.7109 14.4542 74.7109 15.1249C74.7109 15.7813 74.8393 16.3522 75.0962 16.8374C75.3673 17.3083 75.7241 17.6722 76.1664 17.9291C76.6088 18.1859 77.1083 18.3144 77.6648 18.3144Z" fill="white"/>
<path d="M88.1503 20.883V8.7246H83.3554V5.89904H96.4129V8.7246H91.618V20.883H88.1503Z" fill="white"/>
<path d="M104.522 20.883V18.6354L104.308 18.1431V14.1188C104.308 13.4053 104.087 12.8488 103.644 12.4492C103.216 12.0496 102.553 11.8498 101.653 11.8498C101.04 11.8498 100.433 11.9497 99.834 12.1495C99.2489 12.335 98.7494 12.5919 98.3356 12.9201L97.1369 10.5869C97.7648 10.1445 98.5211 9.80202 99.4059 9.55942C100.291 9.31682 101.19 9.19552 102.103 9.19552C103.858 9.19552 105.221 9.60937 106.191 10.4371C107.162 11.2647 107.647 12.5562 107.647 14.3115V20.883H104.522ZM101.011 21.0543C100.112 21.0543 99.3416 20.9045 98.6995 20.6048C98.0573 20.2908 97.565 19.8698 97.2225 19.3418C96.88 18.8138 96.7087 18.2216 96.7087 17.5652C96.7087 16.8802 96.8729 16.2808 97.2011 15.7671C97.5436 15.2533 98.0787 14.8538 98.8065 14.5684C99.5343 14.2687 100.483 14.1188 101.653 14.1188H104.714V16.0668H102.017C101.232 16.0668 100.69 16.1952 100.391 16.4521C100.105 16.7089 99.9624 17.03 99.9624 17.4153C99.9624 17.8434 100.127 18.1859 100.455 18.4428C100.797 18.6854 101.261 18.8067 101.846 18.8067C102.403 18.8067 102.902 18.6783 103.345 18.4214C103.787 18.1502 104.108 17.7578 104.308 17.2441L104.822 18.7853C104.579 19.5274 104.137 20.091 103.494 20.4763C102.852 20.8616 102.024 21.0543 101.011 21.0543Z" fill="white"/>
<path d="M113.431 18.5284L113.516 14.4613L118.889 9.36677H122.871L117.712 14.6112L115.978 16.0239L113.431 18.5284ZM110.669 20.883V5H114.009V20.883H110.669ZM119.253 20.883L115.357 16.0454L117.455 13.4553L123.299 20.883H119.253Z" fill="white"/>
<path d="M130.035 21.0543C128.722 21.0543 127.566 20.7974 126.567 20.2837C125.583 19.7699 124.819 19.0707 124.277 18.1859C123.735 17.2869 123.463 16.2665 123.463 15.1249C123.463 13.969 123.727 12.9487 124.255 12.0639C124.798 11.1648 125.533 10.4656 126.46 9.96613C127.388 9.45239 128.437 9.19552 129.607 9.19552C130.734 9.19552 131.747 9.43812 132.646 9.92332C133.56 10.3942 134.28 11.0792 134.808 11.9783C135.336 12.863 135.6 13.9262 135.6 15.1677C135.6 15.2962 135.593 15.446 135.579 15.6172C135.565 15.7742 135.55 15.9241 135.536 16.0668H126.182V14.1188H133.781L132.497 14.6968C132.497 14.0974 132.375 13.5766 132.133 13.1342C131.89 12.6918 131.555 12.3493 131.127 12.1067C130.699 11.8498 130.199 11.7214 129.628 11.7214C129.057 11.7214 128.551 11.8498 128.108 12.1067C127.68 12.3493 127.345 12.6989 127.102 13.1556C126.86 13.598 126.738 14.126 126.738 14.7396V15.2533C126.738 15.8812 126.874 16.4378 127.145 16.923C127.431 17.3939 127.823 17.7578 128.322 18.0147C128.836 18.2573 129.436 18.3786 130.121 18.3786C130.734 18.3786 131.269 18.2858 131.726 18.1003C132.197 17.9148 132.625 17.6365 133.01 17.2655L134.787 19.192C134.259 19.7914 133.595 20.2551 132.796 20.5834C131.997 20.8973 131.077 21.0543 130.035 21.0543Z" fill="white"/>
<path d="M141.698 21.0543C140.713 21.0543 139.764 20.9401 138.851 20.7118C137.952 20.4692 137.239 20.1695 136.711 19.8128L137.824 17.4153C138.352 17.7435 138.972 18.0147 139.686 18.2287C140.414 18.4285 141.127 18.5284 141.826 18.5284C142.597 18.5284 143.139 18.4357 143.453 18.2501C143.782 18.0646 143.946 17.8078 143.946 17.4795C143.946 17.2084 143.817 17.0086 143.56 16.8802C143.318 16.7375 142.99 16.6304 142.576 16.5591C142.162 16.4877 141.705 16.4164 141.206 16.345C140.721 16.2737 140.228 16.1809 139.729 16.0668C139.229 15.9383 138.773 15.7528 138.359 15.5102C137.945 15.2676 137.61 14.9394 137.353 14.5255C137.11 14.1117 136.989 13.5766 136.989 12.9201C136.989 12.1923 137.196 11.5502 137.61 10.9936C138.038 10.4371 138.651 10.0018 139.45 9.68785C140.25 9.35963 141.206 9.19552 142.319 9.19552C143.104 9.19552 143.903 9.28115 144.716 9.45239C145.53 9.62364 146.208 9.87337 146.75 10.2016L145.637 12.5776C145.08 12.2494 144.516 12.0282 143.946 11.914C143.389 11.7856 142.847 11.7214 142.319 11.7214C141.577 11.7214 141.034 11.8213 140.692 12.0211C140.349 12.2209 140.178 12.4777 140.178 12.7917C140.178 13.0771 140.3 13.2912 140.542 13.4339C140.799 13.5766 141.134 13.6907 141.548 13.7763C141.962 13.862 142.412 13.9405 142.897 14.0118C143.396 14.0689 143.896 14.1617 144.395 14.2901C144.895 14.4185 145.344 14.604 145.744 14.8466C146.158 15.075 146.493 15.396 146.75 15.8099C147.007 16.2095 147.135 16.7375 147.135 17.3939C147.135 18.1074 146.921 18.7425 146.493 19.299C146.065 19.8413 145.444 20.2694 144.631 20.5834C143.831 20.8973 142.854 21.0543 141.698 21.0543Z" fill="white"/>
<path d="M59.6698 28.4988H58.56C58.5397 28.3552 58.4984 28.2277 58.4359 28.1162C58.3734 28.003 58.2931 27.9067 58.1951 27.8273C58.0972 27.7479 57.984 27.6871 57.8556 27.6449C57.7289 27.6027 57.5913 27.5816 57.4426 27.5816C57.174 27.5816 56.9401 27.6483 56.7407 27.7817C56.5414 27.9135 56.3868 28.1061 56.277 28.3594C56.1672 28.6111 56.1123 28.9169 56.1123 29.2767C56.1123 29.6466 56.1672 29.9574 56.277 30.2091C56.3885 30.4608 56.5439 30.6509 56.7433 30.7792C56.9426 30.9076 57.1732 30.9718 57.435 30.9718C57.582 30.9718 57.7179 30.9524 57.8429 30.9135C57.9696 30.8747 58.082 30.8181 58.1799 30.7438C58.2779 30.6677 58.359 30.5757 58.4232 30.4676C58.4891 30.3595 58.5347 30.2362 58.56 30.0976L59.6698 30.1027C59.6411 30.3409 59.5693 30.5706 59.4545 30.7919C59.3413 31.0115 59.1884 31.2083 58.9958 31.3823C58.805 31.5546 58.5769 31.6914 58.3117 31.7928C58.0482 31.8924 57.75 31.9423 57.4173 31.9423C56.9544 31.9423 56.5406 31.8375 56.1757 31.6281C55.8125 31.4186 55.5253 31.1154 55.3142 30.7184C55.1047 30.3215 55 29.8409 55 29.2767C55 28.7108 55.1064 28.2294 55.3193 27.8324C55.5321 27.4354 55.821 27.1331 56.1858 26.9253C56.5507 26.7158 56.9612 26.6111 57.4173 26.6111C57.7179 26.6111 57.9967 26.6533 58.2534 26.7378C58.5119 26.8223 58.7408 26.9456 58.9401 27.1077C59.1394 27.2682 59.3016 27.465 59.4266 27.6981C59.5533 27.9312 59.6344 28.1981 59.6698 28.4988Z" fill="#D1D1D1"/>
<path d="M65.2252 29.2767C65.2252 29.8426 65.118 30.324 64.9034 30.721C64.6906 31.1179 64.4001 31.4211 64.0318 31.6306C63.6652 31.8384 63.2531 31.9423 62.7953 31.9423C62.3341 31.9423 61.9203 31.8375 61.5537 31.6281C61.1872 31.4186 60.8975 31.1154 60.6846 30.7184C60.4718 30.3215 60.3654 29.8409 60.3654 29.2767C60.3654 28.7108 60.4718 28.2294 60.6846 27.8324C60.8975 27.4354 61.1872 27.1331 61.5537 26.9253C61.9203 26.7158 62.3341 26.6111 62.7953 26.6111C63.2531 26.6111 63.6652 26.7158 64.0318 26.9253C64.4001 27.1331 64.6906 27.4354 64.9034 27.8324C65.118 28.2294 65.2252 28.7108 65.2252 29.2767ZM64.1129 29.2767C64.1129 28.9101 64.058 28.601 63.9482 28.3493C63.8401 28.0976 63.6872 27.9067 63.4896 27.7767C63.2919 27.6466 63.0605 27.5816 62.7953 27.5816C62.5301 27.5816 62.2987 27.6466 62.101 27.7767C61.9034 27.9067 61.7497 28.0976 61.6399 28.3493C61.5318 28.601 61.4777 28.9101 61.4777 29.2767C61.4777 29.6432 61.5318 29.9524 61.6399 30.2041C61.7497 30.4558 61.9034 30.6466 62.101 30.7767C62.2987 30.9068 62.5301 30.9718 62.7953 30.9718C63.0605 30.9718 63.2919 30.9068 63.4896 30.7767C63.6872 30.6466 63.8401 30.4558 63.9482 30.2041C64.058 29.9524 64.1129 29.6432 64.1129 29.2767Z" fill="#D1D1D1"/>
<path d="M66.038 26.682H67.391L68.8201 30.1686H68.8809L70.31 26.682H71.663V31.8713H70.5988V28.4937H70.5558L69.2128 31.846H68.4882L67.1452 28.4811H67.1022V31.8713H66.038V26.682Z" fill="#D1D1D1"/>
<path d="M72.567 26.682H73.92L75.3491 30.1686H75.4099L76.839 26.682H78.1921V31.8713H77.1279V28.4937H77.0848L75.7419 31.846H75.0172L73.6743 28.4811H73.6312V31.8713H72.567V26.682Z" fill="#D1D1D1"/>
<path d="M82.3013 26.682H83.3984V30.052C83.3984 30.4304 83.3081 30.7615 83.1273 31.0453C82.9483 31.3291 82.6974 31.5504 82.3748 31.7091C82.0521 31.8662 81.6763 31.9448 81.2472 31.9448C80.8165 31.9448 80.4398 31.8662 80.1171 31.7091C79.7945 31.5504 79.5437 31.3291 79.3646 31.0453C79.1855 30.7615 79.096 30.4304 79.096 30.052V26.682H80.1932V29.9583C80.1932 30.1559 80.2362 30.3316 80.3224 30.4853C80.4102 30.639 80.5335 30.7598 80.6923 30.8476C80.8511 30.9355 81.0361 30.9794 81.2472 30.9794C81.4601 30.9794 81.645 30.9355 81.8021 30.8476C81.9609 30.7598 82.0834 30.639 82.1695 30.4853C82.2574 30.3316 82.3013 30.1559 82.3013 29.9583V26.682Z" fill="#D1D1D1"/>
<path d="M88.6415 26.682V31.8713H87.6939L85.4363 28.6052H85.3983V31.8713H84.3011V26.682H85.264L87.5039 29.9456H87.5495V26.682H88.6415Z" fill="#D1D1D1"/>
<path d="M90.6452 26.682V31.8713H89.548V26.682H90.6452Z" fill="#D1D1D1"/>
<path d="M91.3502 27.5866V26.682H95.6121V27.5866H94.0234V31.8713H92.9389V27.5866H91.3502Z" fill="#D1D1D1"/>
<path d="M96.0099 26.682H97.2388L98.4221 28.9169H98.4728L99.6561 26.682H100.885L98.9922 30.0368V31.8713H97.9027V30.0368L96.0099 26.682Z" fill="#D1D1D1"/>
</svg>
